<?xml version="1.0" encoding="utf-8"?>
<!-- Generator: Adobe Illustrator 25.4.1, SVG Export Plug-In . SVG Version: 6.00 Build 0)  -->
<svg version="1.1" id="Layer_1" xmlns="http://www.w3.org/2000/svg" xmlns:xlink="http://www.w3.org/1999/xlink" x="0px" y="0px"
	 viewBox="0 0 100 250" style="enable-background:new 0 0 100 250;" xml:space="preserve">
<path d="M100,242V8c0-4.4-3.6-8-8-8H8C3.6,0,0,3.6,0,8v234c0,4.4,3.6,8,8,8h84C96.4,250,100,246.4,100,242z M10,240v-25.9h35.1
	c2.6-1.5,4.3-4.3,4.3-7.5s-1.7-6-4.3-7.5H10v-25.8h32.6l-7.9-7.9l7.1-7.1H10v-25.8h40.4l-15-15H10V91.7h32.2c-1-2.3-1.6-4.8-1.6-7.5
	c0-2.7,0.6-5.2,1.6-7.5H10V50.8h33.7l7.5-7.5l-7.5-7.5H10V10h80v25.8H57.7l7.5,7.5l-7.5,7.5H90v25.8H54.9c-2.6,1.5-4.3,4.3-4.3,7.5
	c0,3.2,1.7,6,4.3,7.5H90v25.8H49.6l15,15H90v25.8H56l-7.1,7.1l7.9,7.9H90v25.8H57.8c1,2.3,1.6,4.8,1.6,7.5s-0.6,5.2-1.6,7.5H90V240
	H10z"/>
</svg>
