<?xml version="1.0" encoding="utf-8"?>
<!-- Generator: Adobe Illustrator 25.4.1, SVG Export Plug-In . SVG Version: 6.00 Build 0)  -->
<svg version="1.1" id="Layer_1" xmlns="http://www.w3.org/2000/svg" xmlns:xlink="http://www.w3.org/1999/xlink" x="0px" y="0px"
	 viewBox="0 0 100 250" style="enable-background:new 0 0 100 250;" xml:space="preserve">
<g>
	<path d="M92,0H8C3.6,0,0,3.6,0,8v163.9v2.5v37.9v23.8v5.9c0,4.4,3.6,8,8,8h84c4.4,0,8-3.6,8-8V136.1v-35.5V45.7v-7.3V8
		C100,3.6,96.4,0,92,0z M10,187.2c3.8,4.9,7.6,9.8,11.4,14.7c-0.4,0.7-0.9,1.4-1.3,2.1c-3.1-0.9-6.2-1.6-9.2-2.7
		c-0.4-0.1-0.7-0.2-1-0.3V187.2z M90,240H10v-13.9c26.7-26.7,53.3-53.3,80-80V240z M90,54.9L77.7,42.6l-4.6,4.6L90,64.1v38.7
		c-2.3,0.3-5,0.1-7.9,0.4c0.7,1.6,1.3,4.5,2.9,6.8c2.1,3.1,4.8,5.6,0.1,8.8c-0.8,0.5-0.7,2.5-0.8,3.9c-0.6,4.9-2.9,5.9-6.9,3.2
		c-2.3-1.5-4.6-3.1-6.9-4.6c1.8,5.1,4.3,9.3,6.7,13.6c0.3,0.6,0.3,1.3,0.3,2c0,0.2,0,0.5,0,0.7v0c-0.1,0-0.3,0-0.4,0
		c-0.4,0-0.8,0.1-1.2,0.1c-0.5,0-1.1,0-1.4-0.2c-2.5-1.5-4.7-3.2-6.8-4.7c0.2,1.8,0.5,3.6,0.7,5.5c-2.3-0.6-4.6-1.2-5.4-1.4
		c3.2,6,7,13,11,20.4c-12.4-5.7-24.1-11.1-35.7-16.4c-0.4,0.5-0.8,0.9-1.2,1.4c1.8,3.5,3.6,7,5.2,10.6c0.5,1,0.5,2.5,0.1,3.6
		c-0.6,2.1-1.7,4.1-2.6,6.2c-5.3-4.5-11-9.3-17-14.3c-0.1,1.1-0.2,1.5-0.1,1.7c1.7,2.4,3.3,4.8,5.1,7.1c3.7,4.8,3.5,6.6-1,9.8
		c1,2.3,3.5,5.6,2.8,6.7c-2.5,3.9,0.1,6.3,1.7,8.8c1.6,2.6,0.9,5.2-1.4,5.3c-3.5,0.2-7.3,1.7-10.8-1.3c-2.9-2.4-5.9-4.8-9-7.1v-56.1
		l10.9,10.9l3.7-3.7L10,115.9V10h80v20.3L87.3,33l2.7,2.7V54.9z"/>
	<rect x="29.8" y="93" transform="matrix(0.7071 -0.7071 0.7071 0.7071 -65.0062 53.7457)" width="5.2" height="24.6"/>
	<rect x="41.2" y="81.6" transform="matrix(0.7071 -0.7071 0.7071 0.7071 -53.56 58.4869)" width="5.2" height="24.6"/>
	<rect x="52.7" y="70.1" transform="matrix(0.7071 -0.7071 0.7071 0.7071 -42.1138 63.228)" width="5.2" height="24.6"/>
	<rect x="58.6" y="64.2" transform="matrix(0.7071 -0.7071 0.7071 0.7071 -36.1617 65.6935)" width="5.2" height="24.6"/>
	<rect x="63" y="59.2" transform="matrix(0.7071 -0.7071 0.7071 0.7071 -31.1254 67.7796)" width="6.5" height="24.6"/>
	<rect x="25.6" y="98.5" transform="matrix(0.7071 -0.7071 0.7071 0.7071 -70.5004 51.4699)" width="2.6" height="24.6"/>
	<rect x="37.5" y="86.6" transform="matrix(0.7071 -0.7071 0.7071 0.7071 -58.5963 56.4007)" width="2.6" height="24.6"/>
	<rect x="71.4" y="52.7" transform="matrix(0.7071 -0.7071 0.7071 0.7071 -24.7155 70.4346)" width="2.6" height="24.6"/>
</g>
</svg>
