<?xml version="1.0" encoding="utf-8"?>
<!-- Generator: Adobe Illustrator 25.4.1, SVG Export Plug-In . SVG Version: 6.00 Build 0)  -->
<svg version="1.1" id="Layer_1" xmlns="http://www.w3.org/2000/svg" xmlns:xlink="http://www.w3.org/1999/xlink" x="0px" y="0px"
	 viewBox="0 0 100 250" style="enable-background:new 0 0 100 250;" xml:space="preserve">
<g>
	<g>
		<path d="M92,0H8C3.6,0,0,3.6,0,8v234c0,4.4,3.6,8,8,8h84c4.4,0,8-3.6,8-8V8C100,3.6,96.4,0,92,0z M90,240H10V10h80V240z"/>
	</g>
</g>
<circle cx="37.5" cy="52.8" r="6.6"/>
<circle cx="67.4" cy="199.6" r="6.6"/>
<g>
	<path d="M84,66.1c-6.6,0-9.9,0.8-15.8,3.7c-3.1,1.5-7,1.1-9-1.6l0,0c-2-2.7-0.6-7.3,3.6-9.3c7.9-3.9,12.4-5,21.2-5
		c4.7,0,8,3.4,7.4,6.8l0,0C90.8,64,87.5,66.1,84,66.1z"/>
</g>
<g>
	<g>
		<path d="M20.9,187.5c5.6-3.4,8.1-5.8,11.6-11.4c1.9-2.9,5.4-4.6,8.5-3.3h0c3.1,1.3,4.3,5.9,1.8,9.8c-4.7,7.5-8,10.7-15.6,15.3
			c-4,2.4-8.6,1.2-9.8-2v0C16.2,192.8,17.9,189.2,20.9,187.5z"/>
	</g>
</g>
<g>
	<g>
		<path d="M45.8,78.1c-12-5.3-24.2-10-36.7-14.2c-1.2-0.4-2.3-1.6-1.9-2.5l0,0c0.4-0.9,1.9-1.1,3.1-0.6c12,5.3,24.2,10,36.7,14.2
			c1.2,0.4,2.3,1.6,1.9,2.5l0,0C48.5,78.5,47,78.6,45.8,78.1z"/>
		<path d="M43,72.3c-9.4-2.8-19-6.5-27.9-10.8C14,61,13.8,60.1,15,59.6l0,0c1.2-0.5,3.2-0.3,4,0.3c8.2,5.2,12.6,6.9,22.2,8.6
			c1,0.2,2.5,1.3,3.1,2.5l0,0C44.9,72.1,44.2,72.7,43,72.3z"/>
		<path d="M37.1,79.1c-8.2-5.2-12.6-6.9-22.2-8.6c-1-0.2-2.5-1.3-3.1-2.5l0,0c-0.6-1.2,0.2-1.7,1.3-1.3c9.4,2.8,19,6.5,27.9,10.8
			c1.1,0.5,1.3,1.4,0.1,1.9l0,0C39.9,79.8,37.9,79.6,37.1,79.1z"/>
	</g>
</g>
<g>
	<g>
		<path d="M91.8,172.3c-12.5,3.9-24.9,8.4-36.9,13.4c-1.2,0.5-2.8,0.3-3.1-0.6l0,0c-0.3-0.9,0.7-2.1,2-2.5
			c12.5-3.9,24.9-8.4,36.9-13.4c1.2-0.5,2.8-0.3,3.1,0.6l0,0C94.1,170.8,93,171.9,91.8,172.3z"/>
		<path d="M85.9,169.8c-8.9,4.1-18.6,7.6-28.1,10.2c-1.2,0.3-1.9-0.2-1.3-1.4l0,0c0.6-1.1,2.2-2.3,3.2-2.4c9.6-1.5,14-3.1,22.4-8.1
			c0.8-0.5,2.8-0.7,4-0.2l0,0C87.2,168.4,87,169.3,85.9,169.8z"/>
		<path d="M85.9,178.8c-9.6,1.5-14,3.1-22.4,8.1c-0.8,0.5-2.8,0.7-4,0.2l0,0c-1.2-0.5-1-1.4,0.1-1.9c8.9-4.1,18.6-7.6,28.1-10.2
			c1.2-0.3,1.9,0.2,1.3,1.4l0,0C88.4,177.5,86.8,178.6,85.9,178.8z"/>
	</g>
</g>
<g>
	<path d="M50,83.5c-22.9,0-41.5,18.6-41.5,41.5c0,22.9,18.6,41.5,41.5,41.5c22.9,0,41.5-18.6,41.5-41.5
		C91.5,102.1,72.9,83.5,50,83.5z M44.1,135.5c-7.7,0-14-6.3-14-14s6.3-14,14-14c7.7,0,14,6.3,14,14S51.8,135.5,44.1,135.5z"/>
	<path d="M44.1,110.5c-6.1,0-11,4.9-11,11s4.9,11,11,11c6.1,0,11-4.9,11-11S50.2,110.5,44.1,110.5z"/>
</g>
<g>
	<path d="M0,44.7v8.4c14.2-9.9,31.4-15.7,50-15.7c18.6,0,35.8,5.8,50,15.7v-8.4c-14.5-9.1-31.7-14.3-50-14.3
		C31.7,30.4,14.5,35.6,0,44.7z"/>
	<path d="M100,205.3v-8.4c-14.2,9.9-31.4,15.7-50,15.7c-18.6,0-35.8-5.8-50-15.7v8.4c14.5,9.1,31.7,14.3,50,14.3
		C68.3,219.6,85.5,214.4,100,205.3z"/>
</g>
</svg>
