<?xml version="1.0" encoding="utf-8"?>
<!-- Generator: Adobe Illustrator 25.4.1, SVG Export Plug-In . SVG Version: 6.00 Build 0)  -->
<svg version="1.1" id="Layer_1" xmlns="http://www.w3.org/2000/svg" xmlns:xlink="http://www.w3.org/1999/xlink" x="0px" y="0px"
	 viewBox="0 0 100 250" style="enable-background:new 0 0 100 250;" xml:space="preserve">
<g>
	<g>
		<path d="M92,0H8C3.6,0,0,3.6,0,8v234c0,4.4,3.6,8,8,8h84c4.4,0,8-3.6,8-8V8C100,3.6,96.4,0,92,0z M90,240H10V10h80V240z"/>
	</g>
</g>
<path d="M75,76.6c0-0.5,0-1.1-0.1-1.6l-6.5-44.6c-0.7-5-5.3-8.4-10.3-7.7c-5,0.7-8.4,5.3-7.7,10.3L57,77.6c0.1,0.4,0.2,0.8,0.3,1.2
	l-0.1,0c1.2,8-2.1,10.6-11.6,16.4C34.8,92.4,31,90.8,29.8,82.8l-0.1,0c0-0.4,0-0.8-0.1-1.2L23.1,37c-0.7-5-5.3-8.4-10.3-7.7
	c-5,0.7-8.4,5.3-7.7,10.3l6.5,44.6c0.1,0.5,0.2,1,0.4,1.5c2,12.7,8.8,19,16.4,22.6c-6.3,7.3-10.6,17.9-8.2,34.5l0,0
	c0,0.1,0,0.2,0,0.3l11.2,76.6c0.7,4.9,5.3,8.3,10.2,7.6s8.3-5.3,7.6-10.2l-11.2-76.6c0-0.2-0.1-0.4-0.1-0.6
	c-2-14.3,2.8-20.1,10.4-25.3c8.8,2.8,15,7,17.2,21.2c0,0.2,0,0.4,0.1,0.6L76.9,213c0.7,4.9,5.3,8.3,10.2,7.6s8.3-5.3,7.6-10.2
	l-11.2-76.6c0-0.1,0-0.2,0-0.3l0,0c-2.4-16.5-9.6-25.4-17.7-30.7C72,97.2,76.8,89.3,75,76.6z"/>
</svg>
