<?xml version="1.0" encoding="utf-8"?>
<!-- Generator: Adobe Illustrator 25.4.1, SVG Export Plug-In . SVG Version: 6.00 Build 0)  -->
<svg version="1.1" id="Layer_1" xmlns="http://www.w3.org/2000/svg" xmlns:xlink="http://www.w3.org/1999/xlink" x="0px" y="0px"
	 viewBox="0 0 100 250.5" style="enable-background:new 0 0 100 250.5;" xml:space="preserve">
<path d="M0,8v234c0,4.4,3.6,8,8,8h84c4.4,0,8-3.6,8-8V8c0-4.4-3.6-8-8-8H8C3.6,0,0,3.6,0,8z M22.5,91.2c-0.7-0.2-1.3-0.5-1.9-0.7
	c-1.6-0.6-3.2-1.3-4.8-2l19.5-11.6c0,2.3-0.2,4.7-0.5,7.1L22.5,91.2z M34.5,86.3c-0.3,2.5-0.7,5-1.2,7.5l-1.3,0.8
	c-2.4-0.8-4.8-1.6-7.2-2.5L34.5,86.3z M13.7,87.4c-1.3-0.7-2.6-1.4-3.7-2.2v-2.4l24.5-14.7c0,0.1,0.1,0.3,0.1,0.4
	c0.4,1.9,0.6,3.9,0.6,5.9L13.7,87.4z M10,80.6v-6.8l20.7-12.4c0.3,0.2,0.6,0.5,0.8,0.7c0.7,0.6,1.3,1.3,1.9,2
	c0.3,0.7,0.5,1.4,0.7,2.1L10,80.6z M10,71.5v-6.8l13.5-8.1c2,1,3.8,2.2,5.5,3.5L10,71.5z M10,62.5v-6.8l4.8-2.9
	c0.4,0.2,0.9,0.3,1.3,0.5c1.8,0.7,3.6,1.5,5.3,2.3L10,62.5z M10,53.5v-2.4c0.8,0.3,1.7,0.6,2.5,0.9L10,53.5z M10,240V89.5
	c0.5,0.4,1,0.7,1.6,1c0,0,0,0,0,0c-0.1-0.1-0.2-0.1-0.2-0.2c3.8,3,8.5,5.3,13.5,7.3c2.4,1,4.9,1.8,7.4,2.7c-0.3,2.1-0.7,4.2-0.9,6.3
	c-0.7,5.6-0.9,11,0.1,16c0,0,0,0,0,0c0.6,8.8,7.9,18.1,13.1,21.9c4.8,3.9,10.8,6.6,17.3,8.9c-1.1,7.2-1.8,14.1-0.7,20.5l0,0
	c0.8,8,5.3,17.5,13.3,22.5c3.8,3.1,8.6,5.4,13.8,7.5c0.6,0.2,1.2,0.5,1.9,0.7V240H10z M53.8,144.8c-2.2-0.9-4.4-1.8-6.5-2.9
	l17.5-10.5c-0.1,1.6-0.3,3.2-0.5,4.9c-0.1,0.8-0.2,1.6-0.3,2.4L53.8,144.8z M63.7,141.1c-0.4,2.3-0.7,4.6-1.1,6.8
	c-2.2-0.7-4.4-1.5-6.5-2.3L63.7,141.1z M45.4,140.8c-1.8-1.1-3.6-2.2-5.2-3.5c0,0-0.1-0.1-0.1-0.1l24.6-14.7
	c0.3,2.1,0.3,4.3,0.3,6.6L45.4,140.8z M38.6,135.8c-0.6-0.6-1.2-1.2-1.7-1.8c-0.3-0.8-0.6-1.7-0.8-2.6c-0.1-0.3-0.1-0.5-0.2-0.8
	l26.3-15.7c0.3,0.3,0.6,0.7,0.9,1c0.3,0.8,0.6,1.7,0.8,2.6c0.2,0.6,0.3,1.2,0.4,1.9L38.6,135.8z M35.5,128.6
	c-0.3-2.1-0.5-4.3-0.5-6.5l20.6-12.3c1.5,0.9,2.8,1.8,4.1,2.9c0.3,0.3,0.6,0.6,0.9,0.8L35.5,128.6z M35.1,119.8c0.1-2,0.3-4,0.5-6.1
	c0-0.4,0.1-0.7,0.1-1.1l11.7-7c2.2,0.9,4.3,1.9,6.3,3L35.1,119.8z M36.1,110.2c0.4-2.5,0.8-5,1.2-7.5l0.8-0.5
	c2.4,0.8,4.8,1.7,7.1,2.5L36.1,110.2z M86.4,197.6c-0.9-0.3-1.7-0.6-2.5-1c-1.4-0.6-2.8-1.2-4.2-1.8l10.3-6.2v6.8L86.4,197.6z
	 M77.6,193.9c-2-1-4-2.1-5.7-3.4L90,179.7v6.8L77.6,193.9z M70.2,189.3c-0.6-0.5-1.1-0.9-1.7-1.4c-0.7-0.6-1.3-1.3-1.9-2
	c-0.1-0.3-0.2-0.7-0.4-1.1L90,170.6v6.8L70.2,189.3z M65.7,182.9c-0.1-0.5-0.3-1-0.4-1.5c-0.3-1.6-0.5-3.1-0.6-4.7l22.6-13.5
	c0.9,0.5,1.8,1,2.7,1.6v3.6L65.7,182.9z M64.7,174.5c0-2.3,0.1-4.6,0.3-7l13.7-8.2c0.2,0.1,0.5,0.2,0.7,0.3c2,0.8,4,1.7,5.9,2.6
	L64.7,174.5z M65.3,165.1c0.3-2.5,0.7-4.9,1.1-7.5l2.8-1.7c2.4,0.8,4.8,1.6,7.2,2.5L65.3,165.1z M90,197.8v1.1
	c-0.4-0.1-0.8-0.3-1.2-0.4L90,197.8z M90,10v150.5c-0.5-0.4-1-0.7-1.6-1c0,0,0,0,0,0c0.1,0.1,0.2,0.1,0.2,0.2
	c-3.8-3-8.5-5.3-13.5-7.3c-2.4-1-4.9-1.8-7.4-2.7c0.3-2.1,0.7-4.2,0.9-6.3c0.7-5.6,0.9-11-0.1-16c0,0,0,0,0,0
	c-0.6-8.8-7.9-18.1-13.1-21.9c-4.8-3.9-10.8-6.6-17.3-8.9c1.1-7.2,1.8-14.1,0.7-20.5l0,0c-0.8-8-5.3-17.5-13.3-22.5
	c-3.8-3.1-8.6-5.4-13.8-7.5c-0.6-0.2-1.2-0.5-1.9-0.7V10H90z"/>
</svg>
