<?xml version="1.0" encoding="utf-8"?>
<!-- Generator: Adobe Illustrator 25.4.1, SVG Export Plug-In . SVG Version: 6.00 Build 0)  -->
<svg version="1.1" id="Layer_1" xmlns="http://www.w3.org/2000/svg" xmlns:xlink="http://www.w3.org/1999/xlink" x="0px" y="0px"
	 viewBox="0 0 100 250" style="enable-background:new 0 0 100 250;" xml:space="preserve">
<g>
	<g>
		<path d="M92,0H8C3.6,0,0,3.6,0,8v234c0,4.4,3.6,8,8,8h84c4.4,0,8-3.6,8-8V8C100,3.6,96.4,0,92,0z M90,240H10V10h80V240z"/>
	</g>
</g>
<path d="M22.4,197.1v35.2c0,1.1-0.9,2-2,2s-2-0.9-2-2v-35.2c0-1.1,0.9-2,2-2S22.4,195.9,22.4,197.1z"/>
<path d="M24.9,152.2v35.2c0,1.1-0.9,2-2,2s-2-0.9-2-2v-35.2c0-1.1,0.9-2,2-2S24.9,151.1,24.9,152.2z"/>
<path d="M17.8,107.4v35.2c0,1.1-0.9,2-2,2s-2-0.9-2-2v-35.2c0-1.1,0.9-2,2-2S17.8,106.3,17.8,107.4z"/>
<path d="M28.8,62.6v35.2c0,1.1-0.9,2-2,2s-2-0.9-2-2V62.6c0-1.1,0.9-2,2-2S28.8,61.5,28.8,62.6z"/>
<path d="M21.8,17.7v35.2c0,1.1-0.9,2-2,2s-2-0.9-2-2V17.7c0-1.1,0.9-2,2-2S21.8,16.6,21.8,17.7z"/>
<path d="M32.3,17.7v35.2c0,1.1-0.9,2-2,2s-2-0.9-2-2V17.7c0-1.1,0.9-2,2-2S32.3,16.6,32.3,17.7z"/>
<path d="M38.9,17.7v35.2c0,1.1-0.9,2-2,2s-2-0.9-2-2V17.7c0-1.1,0.9-2,2-2S38.9,16.6,38.9,17.7z"/>
<path d="M56.8,17.7v35.2c0,1.1-0.9,2-2,2c-1.1,0-2-0.9-2-2V17.7c0-1.1,0.9-2,2-2C55.9,15.7,56.8,16.6,56.8,17.7z"/>
<path d="M66.1,17.7v35.2c0,1.1-0.9,2-2,2s-2-0.9-2-2V17.7c0-1.1,0.9-2,2-2S66.1,16.6,66.1,17.7z"/>
<path d="M70.6,17.7v35.2c0,1.1-0.9,2-2,2s-2-0.9-2-2V17.7c0-1.1,0.9-2,2-2S70.6,16.6,70.6,17.7z"/>
<path d="M80.3,17.7v35.2c0,1.1-0.9,2-2,2c-1.1,0-2-0.9-2-2V17.7c0-1.1,0.9-2,2-2C79.4,15.7,80.3,16.6,80.3,17.7z"/>
<path d="M38.9,62.6v35.2c0,1.1-0.9,2-2,2s-2-0.9-2-2V62.6c0-1.1,0.9-2,2-2S38.9,61.5,38.9,62.6z"/>
<path d="M54.4,62.6v35.2c0,1.1-0.9,2-2,2s-2-0.9-2-2V62.6c0-1.1,0.9-2,2-2S54.4,61.5,54.4,62.6z"/>
<path d="M59.8,62.6v35.2c0,1.1-0.9,2-2,2c-1.1,0-2-0.9-2-2V62.6c0-1.1,0.9-2,2-2C58.9,60.6,59.8,61.5,59.8,62.6z"/>
<path d="M73.8,62.6v35.2c0,1.1-0.9,2-2,2c-1.1,0-2-0.9-2-2V62.6c0-1.1,0.9-2,2-2C72.9,60.6,73.8,61.5,73.8,62.6z"/>
<path d="M32.3,107.4v35.2c0,1.1-0.9,2-2,2s-2-0.9-2-2v-35.2c0-1.1,0.9-2,2-2S32.3,106.3,32.3,107.4z"/>
<path d="M38.9,107.4v35.2c0,1.1-0.9,2-2,2s-2-0.9-2-2v-35.2c0-1.1,0.9-2,2-2S38.9,106.3,38.9,107.4z"/>
<path d="M61.8,107.4v35.2c0,1.1-0.9,2-2,2c-1.1,0-2-0.9-2-2v-35.2c0-1.1,0.9-2,2-2C60.9,105.4,61.8,106.3,61.8,107.4z"/>
<path d="M76.9,107.4v35.2c0,1.1-0.9,2-2,2c-1.1,0-2-0.9-2-2v-35.2c0-1.1,0.9-2,2-2C76,105.4,76.9,106.3,76.9,107.4z"/>
<path d="M33.8,152.2v35.2c0,1.1-0.9,2-2,2s-2-0.9-2-2v-35.2c0-1.1,0.9-2,2-2S33.8,151.1,33.8,152.2z"/>
<path d="M46.3,152.2v35.2c0,1.1-0.9,2-2,2s-2-0.9-2-2v-35.2c0-1.1,0.9-2,2-2S46.3,151.1,46.3,152.2z"/>
<path d="M52.2,152.2v35.2c0,1.1-0.9,2-2,2s-2-0.9-2-2v-35.2c0-1.1,0.9-2,2-2S52.2,151.1,52.2,152.2z"/>
<path d="M67.6,152.2v35.2c0,1.1-0.9,2-2,2s-2-0.9-2-2v-35.2c0-1.1,0.9-2,2-2S67.6,151.1,67.6,152.2z"/>
<path d="M80.3,152.2v35.2c0,1.1-0.9,2-2,2c-1.1,0-2-0.9-2-2v-35.2c0-1.1,0.9-2,2-2C79.4,150.2,80.3,151.1,80.3,152.2z"/>
<path d="M35.4,197.1v35.2c0,1.1-0.9,2-2,2s-2-0.9-2-2v-35.2c0-1.1,0.9-2,2-2S35.4,195.9,35.4,197.1z"/>
<path d="M54.4,197.1v35.2c0,1.1-0.9,2-2,2s-2-0.9-2-2v-35.2c0-1.1,0.9-2,2-2S54.4,195.9,54.4,197.1z"/>
<path d="M66.1,197.1v35.2c0,1.1-0.9,2-2,2s-2-0.9-2-2v-35.2c0-1.1,0.9-2,2-2S66.1,195.9,66.1,197.1z"/>
<path d="M72.9,197.1v35.2c0,1.1-0.9,2-2,2c-1.1,0-2-0.9-2-2v-35.2c0-1.1,0.9-2,2-2C72,195.1,72.9,195.9,72.9,197.1z"/>
</svg>
