<?xml version="1.0" encoding="utf-8"?>
<!-- Generator: Adobe Illustrator 25.4.1, SVG Export Plug-In . SVG Version: 6.00 Build 0)  -->
<svg version="1.1" id="Layer_1" xmlns="http://www.w3.org/2000/svg" xmlns:xlink="http://www.w3.org/1999/xlink" x="0px" y="0px"
	 viewBox="0 0 100 250" style="enable-background:new 0 0 100 250;" xml:space="preserve">
<g>
	<path d="M92,0H8C3.6,0,0,3.6,0,8v234c0,4.4,3.6,8,8,8h84c4.4,0,8-3.6,8-8V8C100,3.6,96.4,0,92,0z M90,10v12.2
		c-1.8,1-3.6,3.1-4.5,5.5C62.6,90.3,37.4,152,10,212.7v-9.6c1-0.5,2-1.7,2.8-3.3C36.6,149.4,57.6,98.1,76,45.6
		c1.3-3.8,0.2-6.7-2.8-5.6h0c-3,1.1-6.5,5.7-7.4,9.3C52.6,97.5,34.2,142.8,10,186.5V10H90z M10,240v-11.2c2.3-0.4,4.8-3,5.9-6.1
		C38.4,161.3,63.1,100.7,90,41v7.6c-0.5,0.6-1,1.3-1.4,2.2c-23.7,50.4-44.8,101.7-63.2,154.2c-1.3,3.8-0.2,6.7,2.8,5.6v0
		c3-1.1,6.5-5.7,7.4-9.3C48.6,154,66.5,109.5,90,66.6V240H10z"/>
	<path d="M85.3,80.5C67.7,112.8,54.1,146,43.9,181.4c-0.9,3.4,0.7,4.8,3.9,2.4c3.2-2.4,6.2-7.1,6.7-10c6-30,16.2-54.9,33-80.5
		c1.7-2.3,2.8-7.9,2.2-11.8C89.2,77.6,87,77.4,85.3,80.5z"/>
	<path d="M11.7,169c0.6,3.9,2.7,4.1,4.5,1c17.6-32.3,31.2-65.5,41.3-100.8c0.9-3.4-0.7-4.8-3.9-2.4s-6.2,7.1-6.7,10
		c-6,30-16.2,54.9-33,80.5C12.3,159.5,11.1,165.1,11.7,169L11.7,169z"/>
</g>
</svg>
