<?xml version="1.0" encoding="utf-8"?>
<!-- Generator: Adobe Illustrator 25.4.1, SVG Export Plug-In . SVG Version: 6.00 Build 0)  -->
<svg version="1.1" id="Layer_1" xmlns="http://www.w3.org/2000/svg" xmlns:xlink="http://www.w3.org/1999/xlink" x="0px" y="0px"
	 viewBox="0 0 100 250" style="enable-background:new 0 0 100 250;" xml:space="preserve">
<style type="text/css">
	.st0{fill:none;stroke:#000000;stroke-width:4;stroke-miterlimit:10;}
	.st1{fill:none;stroke:#000000;stroke-width:3;stroke-linecap:round;stroke-miterlimit:10;}
</style>
<g>
	<g>
		<path d="M92,0H8C3.6,0,0,3.6,0,8v234c0,4.4,3.6,8,8,8h84c4.4,0,8-3.6,8-8V8C100,3.6,96.4,0,92,0z M90,240H10V10h80V240z"/>
	</g>
</g>
<circle class="st0" cx="45" cy="179.4" r="20"/>
<path d="M46.5,195.2L44,180.8l-14.4,2.5C31.5,190.9,38.7,196,46.5,195.2z M29.2,180.9l14.4-2.5L41,164
	C33.4,165.9,28.4,173.1,29.2,180.9z M60.8,177.8l-14.4,2.5l2.5,14.4C56.6,192.8,61.6,185.6,60.8,177.8z M60.4,175.4
	c-1.9-7.6-9.2-12.6-17-11.9l2.5,14.4L60.4,175.4z"/>
<circle class="st0" cx="55" cy="70.6" r="20"/>
<path d="M51,86l2.5-14.4l-14.4-2.5C38.4,76.9,43.4,84.1,51,86z M39.6,66.7L54,69.2l2.5-14.4C48.7,54,41.5,59.1,39.6,66.7z
	 M70.4,74.6L56,72.1l-2.5,14.4C61.3,87.2,68.5,82.2,70.4,74.6z M70.8,72.2c0.8-7.8-4.3-15-11.9-17l-2.5,14.4L70.8,72.2z"/>
<path class="st0" d="M65,179.4c0-54.4-30-54.1-30-108.8"/>
<path class="st0" d="M55,90.6c-45,0-30-35.9-50-35.9"/>
<path class="st0" d="M45,159.4c45,0,25,35.9,50,35.9"/>
<path class="st1" d="M41.9,55.5c-1.5-14.5-8.6-7.5-8-18"/>
<path class="st1" d="M69.8,57.1c2.2-10.7,5.2-5,10.5-16.7"/>
<path class="st1" d="M58.1,194.5c1.5,14.5,8.6,7.5,8,18"/>
<path class="st1" d="M30.2,192.9c-2.2,10.7-5.2,5-10.5,16.7"/>
</svg>
