<?xml version="1.0" encoding="utf-8"?>
<!-- Generator: Adobe Illustrator 25.4.1, SVG Export Plug-In . SVG Version: 6.00 Build 0)  -->
<svg version="1.1" id="Layer_1" xmlns="http://www.w3.org/2000/svg" xmlns:xlink="http://www.w3.org/1999/xlink" x="0px" y="0px"
	 viewBox="0 0 100 250" style="enable-background:new 0 0 100 250;" xml:space="preserve">
<path d="M92,0H8C3.6,0,0,3.6,0,8v234c0,4.4,3.6,8,8,8h84c4.4,0,8-3.6,8-8v-30v-17.1v-6.7V58.5v-6.7V34.7V8C100,3.6,96.4,0,92,0z
	 M83.4,45.5c-2.1-5-7.9-7.4-12.9-5.4c-5,2.1-7.4,7.9-5.4,12.9c1.7,4,5.6,6.3,9.7,6.1l2.2,5.3c-5.8,2.7-11.1,6.3-15.8,10.6L57.2,71
	c1.8-3.7,1.2-8.2-1.9-11.3c-3.9-3.9-10.1-3.9-14,0c-3.9,3.9-3.9,10.1,0,14c3.1,3.1,7.6,3.7,11.3,1.9l4.1,4.1
	c-4.3,4.7-7.8,10-10.6,15.8l-5.3-2.2c0.2-4.1-2.1-8.1-6.1-9.7c-5-2.1-10.8,0.3-12.9,5.4s0.3,10.8,5.4,12.9c4,1.7,8.4,0.5,11.2-2.6
	l5.3,2.2c-2.1,5.9-3.4,12.1-3.7,18.6h-5.8c-1.3-3.9-5-6.6-9.3-6.6c-5.5,0-9.9,4.4-9.9,9.9c0,5.5,4.4,9.9,9.9,9.9
	c4.3,0,8-2.8,9.3-6.6H40c0.3,6.5,1.6,12.8,3.7,18.6l-5.3,2.2c-2.7-3.1-7.2-4.2-11.2-2.6c-5,2.1-7.4,7.9-5.4,12.9
	c2.1,5,7.9,7.4,12.9,5.4c4-1.7,6.3-5.6,6.1-9.7l5.3-2.2c2.7,5.8,6.3,11.1,10.6,15.8l-4.1,4.1c-3.7-1.8-8.2-1.2-11.3,1.9
	c-3.9,3.9-3.9,10.1,0,14c3.9,3.9,10.1,3.9,14,0c3.1-3.1,3.7-7.6,1.9-11.3l4.1-4.1c4.7,4.3,10,7.8,15.8,10.6l-2.2,5.3
	c-4.1-0.2-8.1,2.1-9.7,6.1c-2.1,5,0.3,10.8,5.4,12.9c5,2.1,10.8-0.3,12.9-5.4c1.7-4,0.5-8.4-2.6-11.2l2.2-5.3c2.3,0.8,4.6,1.5,6.9,2
	V240H10V10h80v50c-2.4,0.6-4.7,1.2-6.9,2l-2.2-5.3C83.9,54,85.1,49.5,83.4,45.5z"/>
</svg>
