<?xml version="1.0" encoding="utf-8"?>
<!-- Generator: Adobe Illustrator 25.4.1, SVG Export Plug-In . SVG Version: 6.00 Build 0)  -->
<svg version="1.1" id="Layer_1" xmlns="http://www.w3.org/2000/svg" xmlns:xlink="http://www.w3.org/1999/xlink" x="0px" y="0px"
	 viewBox="0 0 592 281.2" style="enable-background:new 0 0 592 281.2;" xml:space="preserve">
<style type="text/css">
	.st0{fill:#FFFFFF;}
</style>
<path class="st0" d="M242,0H8C3.6,0,0,3.6,0,8v84c0,4.4,3.6,8,8,8h234c4.4,0,8-3.6,8-8V8C250,3.6,246.4,0,242,0z M240,90h-25.9V54.9
	c-2.5-4.1-7.8-5.5-12-3c-1.2,0.7-2.3,1.8-3,3V90h-25.8V57.4l-7.9,7.9l-7.1-7.1V90h-25.8V49.6l-15,15V90H91.7V57.8
	c-4.8,2.1-10.2,2.1-15,0V90H50.8V56.3l-7.5-7.5l-7.5,7.5V90H10V10h25.8v32.3l7.5-7.5l7.5,7.5V10h25.8v35.1c2.5,4.1,7.8,5.5,12,3
	c1.2-0.7,2.3-1.8,3-3V10h25.8v40.4l15-15V10h25.8v34l7.1,7.1l7.9-7.9V10h25.8v32.2c4.8-2.1,10.2-2.1,15,0V10H240V90z"/>
<path class="st0" d="M584-0.9H350c-4.4,0-8,3.6-8,8v84c0,4.4,3.6,8,8,8h234c4.4,0,8-3.6,8-8v-84C592,2.7,588.4-0.9,584-0.9z
	 M500.8,21.7c0.2-0.6,0.5-1.3,0.7-2c0.7-1.6,1.3-3.2,2-4.8l11.7,19.5c-2.4,0-4.7-0.2-7.1-0.5L500.8,21.7z M505.7,33.7
	c-2.5-0.3-5-0.8-7.5-1.2l-0.8-1.3c0.8-2.4,1.6-4.8,2.5-7.2L505.7,33.7z M504.6,12.9c0.7-1.3,1.4-2.6,2.1-3.7h2.4l14.7,24.6l-0.4,0.1
	c-2,0.4-3.9,0.6-5.9,0.6L504.6,12.9z M511.4,9.2h6.8l12.3,20.7c-0.2,0.3-0.5,0.5-0.7,0.8c-0.6,0.7-1.3,1.3-2,1.9
	c-0.7,0.3-1.4,0.5-2.1,0.7L511.4,9.2z M520.4,9.2h6.8l8.1,13.5c-1,1.9-2.2,3.8-3.5,5.5L520.4,9.2z M529.4,9.2h6.8L539,14
	c-0.2,0.4-0.3,0.9-0.5,1.3c-0.7,1.8-1.5,3.6-2.3,5.4L529.4,9.2z M538.4,9.2h2.4c-0.3,0.8-0.6,1.7-0.9,2.5L538.4,9.2z M352,9.1h150.5
	c-0.4,0.5-0.7,1-1,1.6l0,0l0.2-0.2c-3.1,4.1-5.5,8.7-7.3,13.5c-1,2.4-1.8,4.9-2.7,7.4c-2.1-0.3-4.2-0.6-6.3-0.9
	c-5.3-0.8-10.7-0.8-16,0.1l0,0c-8.8,0.6-18.2,7.9-21.9,13.1c-3.9,4.8-6.5,10.8-8.9,17.3c-7.2-1.1-14.1-1.8-20.5-0.7l0,0
	c-8,0.8-17.5,5.3-22.5,13.4c-3.2,4.2-5.7,8.8-7.5,13.8c-0.2,0.6-0.5,1.2-0.7,1.9H352V9.1z M447.2,53c0.9-2.2,1.9-4.4,2.9-6.5
	L460.6,64c-1.6-0.1-3.2-0.2-4.9-0.4l-2.4-0.3L447.2,53z M450.8,62.9c-2.3-0.3-4.6-0.8-6.8-1.1c0.7-2.2,1.5-4.4,2.3-6.5L450.8,62.9z
	 M451.1,44.5c1-1.8,2.2-3.5,3.5-5.2l0.1-0.1l14.7,24.6c-2.2,0.3-4.4,0.4-6.6,0.3L451.1,44.5z M456.1,37.7c0.6-0.6,1.2-1.2,1.8-1.7
	c0.8-0.3,1.7-0.6,2.6-0.8c0.3-0.1,0.5-0.1,0.8-0.2L477,61.3c-0.3,0.3-0.7,0.6-1,0.9c-0.8,0.3-1.7,0.6-2.6,0.8
	c-0.6,0.2-1.2,0.3-1.9,0.4L456.1,37.7z M463.3,34.6c2.2-0.3,4.3-0.5,6.5-0.5l12.3,20.7c-0.9,1.4-1.8,2.8-2.9,4.1
	c-0.3,0.3-0.6,0.6-0.8,0.9L463.3,34.6z M472.1,34.2c2,0.1,4,0.3,6.1,0.5l1,0.1l7,11.7c-0.9,2.2-1.9,4.3-3,6.3L472.1,34.2z
	 M481.8,35.2c2.5,0.4,5,0.8,7.5,1.2l0.5,0.7c-0.8,2.4-1.6,4.8-2.5,7.1L481.8,35.2z M394.3,85.6c0.3-0.9,0.6-1.7,1-2.6
	c0.6-1.4,1.2-2.8,1.8-4.2l6.1,10.3h-6.8L394.3,85.6z M398.1,76.7c1-2,2.1-3.9,3.4-5.7l10.9,18.1h-6.8L398.1,76.7z M402.7,69.3
	c0.5-0.6,0.9-1.1,1.4-1.7c0.6-0.7,1.3-1.3,2-1.9c0.4-0.1,0.7-0.2,1.1-0.4l14.1,23.7h-6.8L402.7,69.3z M409.1,64.9
	c0.5-0.1,1-0.3,1.5-0.4c1.6-0.3,3.1-0.5,4.7-0.6l13.5,22.6c-0.5,0.9-1,1.8-1.6,2.7h-3.6L409.1,64.9z M417.5,63.9
	c2.3,0,4.7,0.1,7,0.3l8.2,13.7l-0.3,0.7c-0.8,2-1.7,4-2.6,5.9L417.5,63.9z M426.9,64.5c2.4,0.3,4.9,0.7,7.4,1.1l1.7,2.8
	c-0.8,2.4-1.6,4.8-2.5,7.2L426.9,64.5z M394.2,89.1h-1.1l0.4-1.2L394.2,89.1z M582,89.1H431.4c0.4-0.5,0.7-1,1-1.6l0,0l-0.2,0.2
	c3.1-4.1,5.5-8.7,7.3-13.5c1-2.4,1.8-4.9,2.7-7.4c2.1,0.3,4.2,0.7,6.3,0.9c5.3,0.8,10.7,0.8,16-0.1l0,0c8.8-0.6,18.1-7.9,21.9-13.1
	c3.9-4.8,6.5-10.8,8.9-17.3c7.2,1.1,14.1,1.8,20.5,0.7l0,0c8-0.8,17.5-5.3,22.5-13.3c3.2-4.2,5.7-8.8,7.5-13.8
	c0.2-0.6,0.5-1.2,0.7-1.9H582V89.1z"/>
<path class="st0" d="M7.1,281.2h234c4.4,0,8-3.6,8-8v-84c0-4.4-3.6-8-8-8H7.1c-4.4,0-8,3.6-8,8v84C-0.9,277.6,2.7,281.2,7.1,281.2z
	 M239.1,248.1c-2.8-1.2-5.4-2.8-7.8-4.8l5-11.2c0.9,0.4,1.8,0.8,2.7,1.2L239.1,248.1L239.1,248.1z M226.1,226.4
	c2.5,1.5,5.1,3,7.6,4.3l-4.7,10.5c-2.1-1.9-4.2-4-6.4-6.2L226.1,226.4z M220.4,232.6l-2.8-3c-1.1-1.2-2.2-2.4-3.3-3.5l1.6-5.9
	c1.6,1,3.2,2,4.8,2.9l2.8,1.8L220.4,232.6z M9.1,191.2h230V230c-5.8-2.8-11.5-6-16.9-9.5c-12.4-7.7-25.2-15.5-42-16.1
	c-0.6,0-1.1-0.1-1.7-0.1c-34.4,0-44.2,12.5-53.7,24.5c-8,10.2-15.6,19.8-38.1,23c11.2-9.1,13.1-25.5,4.3-37c2.7-1.2,6-1.2,9.3-1.3
	c5,0,10.2-0.1,12.3-4.6c0.4-0.7,0-1.6-0.7-2c-0.7-0.4-1.6,0-2,0.7c-1.2,2.6-4.5,2.8-9.6,2.9c-3.8,0-8,0.1-11.3,1.9
	c-9.8-10.1-25.8-10.9-36.5-1.8c-1.7-2.2-3.7-4.2-6-5.8c-1.7-1.3-3.2-2.4-3.3-3.4c0.1-1,0.5-2,1.3-2.6c0.6-0.6,0.7-1.5,0.1-2.1
	c-0.6-0.6-1.5-0.7-2.1-0.1c-0.1,0.1-0.2,0.2-0.3,0.3c-1.5,1.8-2.2,3.4-2,4.9c0.3,2.3,2.2,3.8,4.5,5.5c2.2,1.5,4.1,3.3,5.6,5.5
	c-8,8.5-9.6,21.2-3.8,31.4c-4.7-4.3-9.3-8.8-13.5-13.6c-8-8.6-15.6-16.8-23.8-19.6V191.2z M213.2,218.5l-1.4,5
	c-1.8-1.8-3.6-3.6-5.4-5.4l0.2-3.3C208.9,216,211.1,217.3,213.2,218.5z M197.2,210.8c2.2,0.8,4.3,1.7,6.4,2.7l-0.1,2.2
	C201.5,213.9,199.4,212.3,197.2,210.8L197.2,210.8z M200.2,231.2c0,12-9.7,21.8-21.8,21.8s-21.8-9.7-21.8-21.8s9.7-21.8,21.8-21.8
	C190.5,209.4,200.3,219.1,200.2,231.2C200.3,231.1,200.3,231.2,200.2,231.2L200.2,231.2z M48,231.2c0-12,9.7-21.8,21.8-21.8
	s21.8,9.7,21.8,21.8c0,12-9.7,21.8-21.8,21.8C57.8,252.9,48,243.2,48,231.2z M51,251.6c-2.2-0.8-4.3-1.7-6.5-2.7l0.2-2.2
	C46.7,248.5,48.8,250.1,51,251.6L51,251.6z M41.9,244.2l-0.2,3.3c-2.2-1.1-4.5-2.4-6.6-3.7l1.4-5C38.2,240.6,40,242.4,41.9,244.2z
	 M27.9,229.7l2.8,3c1.1,1.2,2.2,2.4,3.3,3.5l-1.6,5.9c-1.6-1-3.2-2-4.8-2.9l-2.8-1.8L27.9,229.7z M22.1,235.9
	c-2.5-1.5-5.1-3-7.6-4.3l4.7-10.5c2.1,1.9,4.2,4,6.4,6.2L22.1,235.9z M9.1,214.3c2.8,1.2,5.4,2.8,7.8,4.8l-5,11.2
	c-0.9-0.4-1.8-0.8-2.7-1.2L9.1,214.3L9.1,214.3z M9.1,232.4c5.8,2.8,11.5,6,16.9,9.5c12.4,7.7,25.3,15.6,42.2,16.1l0,0
	c0.5,0,1,0,1.5,0c38.6,0,49-13.2,59-25.9c7.2-9.2,14.1-17.9,32.4-21.2c-10.9,9.2-12.6,25.3-3.9,36.7c-2.7,1.2-6,1.2-9.4,1.3
	c-5,0-10.2,0.1-12.3,4.6c-0.4,0.7,0,1.6,0.7,2c0.7,0.4,1.6,0,2-0.7c1.2-2.6,4.5-2.8,9.6-2.9c3.8,0,8-0.1,11.4-1.9
	c9.5,9.9,24.9,10.9,35.7,2.5c1.1,2.4,2.8,4.5,4.8,6.2c2.1,2,3.7,3.6,3.7,5.9c0,0.8,0.7,1.5,1.5,1.5s1.5-0.7,1.5-1.5
	c0-3.6-2.4-5.9-4.7-8.1c-1.9-1.9-3.8-3.6-4.4-6.3c8.5-8.5,10.3-21.6,4.4-32c4.7,4.3,9.2,8.8,13.5,13.6c8,8.6,15.6,16.8,23.8,19.6
	v19.9H9.1V232.4L9.1,232.4z M180,250.4c9.5-0.7,17-8.3,17.8-17.8H180V250.4z M177,250.4v-17.8h-17.8
	C160,242.1,167.5,249.7,177,250.4z M180,211.9v17.8h17.8C197,220.2,189.5,212.6,180,211.9z M159.3,229.7H177v-17.8
	C167.5,212.6,160,220.2,159.3,229.7z M71.3,211.9v17.8H89C88.3,220.2,80.8,212.6,71.3,211.9z M68.3,211.9c-9.5,0.7-17,8.3-17.7,17.8
	h17.8C68.3,229.7,68.3,211.9,68.3,211.9z M89,232.7H71.3v17.8C80.8,249.7,88.3,242.1,89,232.7z M68.3,250.4v-17.8H50.5
	C51.3,242.1,58.8,249.7,68.3,250.4z"/>
<g>
	<path class="st0" d="M584,181.2H350c-4.4,0-8,3.6-8,8v84c0,4.4,3.6,8,8,8h234c4.4,0,8-3.6,8-8v-84C592,184.7,588.4,181.2,584,181.2
		z M582,271.2H352v-80h230V271.2z"/>
	<path class="st0" d="M394.9,203.6h-35.2c-1.1,0-2-0.9-2-2s0.9-2,2-2h35.2c1.1,0,2,0.9,2,2S396,203.6,394.9,203.6z"/>
	<path class="st0" d="M439.8,206.1h-35.2c-1.1,0-2-0.9-2-2s0.9-2,2-2h35.2c1.1,0,2,0.9,2,2S440.9,206.1,439.8,206.1z"/>
	<path class="st0" d="M484.6,198.9h-35.2c-1.1,0-2-0.9-2-2c0-1.1,0.9-2,2-2h35.2c1.1,0,2,0.9,2,2C486.6,198,485.7,198.9,484.6,198.9
		z"/>
	<path class="st0" d="M529.4,209.9h-35.2c-1.1,0-2-0.9-2-2c0-1.1,0.9-2,2-2h35.2c1.1,0,2,0.9,2,2C531.4,209,530.5,209.9,529.4,209.9
		z"/>
	<path class="st0" d="M574.2,202.9H539c-1.1,0-2-0.9-2-2c0-1.1,0.9-2,2-2h35.2c1.1,0,2,0.9,2,2C576.2,202,575.3,202.9,574.2,202.9z"
		/>
	<path class="st0" d="M574.2,213.4H539c-1.1,0-2-0.9-2-2c0-1.1,0.9-2,2-2h35.2c1.1,0,2,0.9,2,2C576.2,212.5,575.3,213.4,574.2,213.4
		z"/>
	<path class="st0" d="M574.2,220.1H539c-1.1,0-2-0.9-2-2s0.9-2,2-2h35.2c1.1,0,2,0.9,2,2S575.3,220.1,574.2,220.1z"/>
	<path class="st0" d="M574.2,237.9H539c-1.1,0-2-0.9-2-2s0.9-2,2-2h35.2c1.1,0,2,0.9,2,2S575.3,237.9,574.2,237.9z"/>
	<path class="st0" d="M574.2,247.3H539c-1.1,0-2-0.9-2-2s0.9-2,2-2h35.2c1.1,0,2,0.9,2,2S575.3,247.3,574.2,247.3z"/>
	<path class="st0" d="M574.2,251.8H539c-1.1,0-2-0.9-2-2s0.9-2,2-2h35.2c1.1,0,2,0.9,2,2S575.3,251.8,574.2,251.8z"/>
	<path class="st0" d="M574.2,261.4H539c-1.1,0-2-0.9-2-2c0-1.1,0.9-2,2-2h35.2c1.1,0,2,0.9,2,2C576.2,260.5,575.3,261.4,574.2,261.4
		z"/>
	<path class="st0" d="M529.4,220.1h-35.2c-1.1,0-2-0.9-2-2s0.9-2,2-2h35.2c1.1,0,2,0.9,2,2S530.5,220.1,529.4,220.1z"/>
	<path class="st0" d="M529.4,235.6h-35.2c-1.1,0-2-0.9-2-2s0.9-2,2-2h35.2c1.1,0,2,0.9,2,2S530.5,235.6,529.4,235.6z"/>
	<path class="st0" d="M529.4,240.9h-35.2c-1.1,0-2-0.9-2-2s0.9-2,2-2h35.2c1.1,0,2,0.9,2,2S530.5,240.9,529.4,240.9z"/>
	<path class="st0" d="M529.4,254.9h-35.2c-1.1,0-2-0.9-2-2s0.9-2,2-2h35.2c1.1,0,2,0.9,2,2S530.5,254.9,529.4,254.9z"/>
	<path class="st0" d="M484.6,213.4h-35.2c-1.1,0-2-0.9-2-2c0-1.1,0.9-2,2-2h35.2c1.1,0,2,0.9,2,2
		C486.6,212.5,485.7,213.4,484.6,213.4z"/>
	<path class="st0" d="M484.6,220.1h-35.2c-1.1,0-2-0.9-2-2s0.9-2,2-2h35.2c1.1,0,2,0.9,2,2S485.7,220.1,484.6,220.1z"/>
	<path class="st0" d="M484.6,242.9h-35.2c-1.1,0-2-0.9-2-2s0.9-2,2-2h35.2c1.1,0,2,0.9,2,2S485.7,242.9,484.6,242.9z"/>
	<path class="st0" d="M484.6,258.1h-35.2c-1.1,0-2-0.9-2-2c0-1.1,0.9-2,2-2h35.2c1.1,0,2,0.9,2,2
		C486.6,257.2,485.7,258.1,484.6,258.1z"/>
	<path class="st0" d="M439.8,214.9h-35.2c-1.1,0-2-0.9-2-2s0.9-2,2-2h35.2c1.1,0,2,0.9,2,2S440.9,214.9,439.8,214.9z"/>
	<path class="st0" d="M439.8,227.4h-35.2c-1.1,0-2-0.9-2-2s0.9-2,2-2h35.2c1.1,0,2,0.9,2,2S440.9,227.4,439.8,227.4z"/>
	<path class="st0" d="M439.8,233.3h-35.2c-1.1,0-2-0.9-2-2s0.9-2,2-2h35.2c1.1,0,2,0.9,2,2S440.9,233.3,439.8,233.3z"/>
	<path class="st0" d="M439.8,248.8h-35.2c-1.1,0-2-0.9-2-2s0.9-2,2-2h35.2c1.1,0,2,0.9,2,2S440.9,248.8,439.8,248.8z"/>
	<path class="st0" d="M439.8,261.4h-35.2c-1.1,0-2-0.9-2-2c0-1.1,0.9-2,2-2h35.2c1.1,0,2,0.9,2,2
		C441.8,260.5,440.9,261.4,439.8,261.4z"/>
	<path class="st0" d="M394.9,216.6h-35.2c-1.1,0-2-0.9-2-2s0.9-2,2-2h35.2c1.1,0,2,0.9,2,2S396,216.6,394.9,216.6z"/>
	<path class="st0" d="M394.9,235.6h-35.2c-1.1,0-2-0.9-2-2s0.9-2,2-2h35.2c1.1,0,2,0.9,2,2S396,235.6,394.9,235.6z"/>
	<path class="st0" d="M394.9,247.3h-35.2c-1.1,0-2-0.9-2-2s0.9-2,2-2h35.2c1.1,0,2,0.9,2,2S396,247.3,394.9,247.3z"/>
	<path class="st0" d="M394.9,254.1h-35.2c-1.1,0-2-0.9-2-2s0.9-2,2-2h35.2c1.1,0,2,0.9,2,2S396,254.1,394.9,254.1z"/>
</g>
</svg>
