<?xml version="1.0" encoding="utf-8"?>
<!-- Generator: Adobe Illustrator 25.4.1, SVG Export Plug-In . SVG Version: 6.00 Build 0)  -->
<svg version="1.1" id="Layer_1" xmlns="http://www.w3.org/2000/svg" xmlns:xlink="http://www.w3.org/1999/xlink" x="0px" y="0px"
	 viewBox="0 0 217.82 323.45" style="enable-background:new 0 0 217.82 323.45;" xml:space="preserve">
<style type="text/css">
	.st0{fill:#FFFFFF;}
	.st1{fill:#A90533;}
	.st2{fill:#005A57;}
</style>
<g>
	<path class="st0" d="M46.31,0L0,44.5v119.52l40.26,40.3h18.46c-0.45,1.21-1.04,3.09,0.24,4.92c1.4,2.02,3.81,2.02,4.71,2.02
		c1.1,0,2.6-0.13,4.93-0.43l0.01,0c0,0,0.97,0.82-1.98,1.77v0.01c-2.42,0.84-4.53,2.23-5.24,4.62c-0.05,0.17-0.06,0.33-0.1,0.5H0.02
		L0,278.81l46.3,44.64h121.79l46.31-44.57V164.4l-40.26-40.24h-34.15c-0.02-0.01-0.03-0.02-0.05-0.02c-1.51-0.89-3.05-1.8-4.47-2.73
		l-0.51-0.32l-0.1-0.03c-0.75-0.46-1.56-1.05-2.44-1.79c-0.76-0.61-1.39-1.19-1.87-1.72l-0.13-0.13c-0.91-0.93-1.68-1.81-2.3-2.59
		c5.34,1.52,11.13,1.89,13.91,1.98h0.35c0.19,0,0.36,0.01,0.52,0.01l0.25,0.02c0.66,0.05,1.18,0.17,1.52,0.26
		c0.36,0.15,0.68,0.3,0.96,0.43l1.45,0.53c0.34,0.07,0.7,0.11,1.06,0.11c2.1,0,4.05-1.25,4.94-3.17c0.31-0.67,0.75-2,0.4-3.73
		l60.91,0.03V44.57"/>
</g>
<polygon class="st0" points="95.2,198.79 42.55,198.79 5.53,161.72 5.53,46.85 48.54,5.52 165.85,5.52 208.87,46.92 208.87,105.76 
	114.98,105.76 114.98,129.68 171.84,129.68 208.87,166.69 208.87,276.53 165.85,317.92 48.53,317.92 5.53,276.46 5.55,223.28 
	66.17,223.28 95.08,223.28 "/>
<polygon class="st0" points="94.19,204.31 40.26,204.31 0,164.01 0,44.5 46.31,0 168.09,0 214.4,44.57 214.4,111.29 114.98,111.29 
	114.98,124.15 174.13,124.15 214.4,164.4 214.4,278.88 168.09,323.45 46.3,323.45 0,278.81 0.02,217.73 95.1,217.73 "/>
<g>
	<path class="st1" d="M123.95,167.54c1.62,1.82,10.59,7.68,13.72,9.13c6.82,3.11,10.36,8.16,12.47,14.58c2,6.06-0.17,4.73-1.8,3.98
		c-1.62-0.75-2.09-2.38-6.12-2.29c-4.04,0.1-6.32-0.2-9.19-2.42c-0.75-0.58-1.36-1.24-1.89-1.8c-0.03-0.01-0.05-0.03-0.09-0.06
		c-2.76-2.06-2.21,4.81-1.65,5.94c1.99,3.95,3.35,2.34,14.85,8.35c5.47,2.86,6.75,6.71,7.33,8.32c0.92,2.61,1.88,3.36-6.49,2.21
		c-2.68-0.36-7.49-2.04-9.78-3.55c-2.21-1.49-6.63-0.28-6.23,2.96c2.06,4.95,7.36,8.06,12.43,8.69c4.42,0.54,6.43,1.5,7.23,2.47
		c2.44,2.71-2.06,6.68-2.06,6.68c-2.25,2.55,0.18,5.56,1.84,6.45c2.7,1.34,7.92,4.42,9.67,8.84c9.06,22.93,0.29,16.37-4.02,13.73
		c-4.31-2.64-12.52-9.38-20.01-8.78c-7.49,0.58-9.98,0.97-14.42-2.49c-4.44-3.46-4,2.14-4,2.14s0,6.8,0,27.66
		c0.27,6.2,1.43,12.1,6.44,17.12c4.11,4.11,7.24,3.34,13.04,10.28c2.67,3.2,11.4,6.65,17.23,6.72l11.15,0.01l39.72-38.22v-105.2
		l-33.79-33.78l-22-0.01c1.86,3.01,2.93,6.95,3.71,12.7c0.03,3.46-4.64,1.78-6.14,0.88c-1.06-0.71-2.44-1.38-4.25-1.79
		c-3.38-0.8-11.47-4.28-13.68-5.06c-2.25-0.8-3.89,0.83-4.15,1.44l0,0.01c-0.56,1.05,0.61,3.17,0.61,3.17
		c3.18,7.06,9.02,6.69,15.46,11.19c8.82,6.19,4.09,7.49,2.28,6.56c-1.8-0.93-4.76-0.35-4.76-0.35c-7.13,1.92-9.27-0.98-13.44-2.07
		C119.04,160.76,122.45,165.84,123.95,167.54z"/>
	<path class="st1" d="M83.65,297.01c2.75-4.26,7.61-7.88,10.69-10.96c3.26-3.25,3.84-10.64,3.94-18.69c0-12.39,0-16.75,0-16.75
		l0.02,0.17c0-1.68,0-3,0-4.01l0.01,0v-2.67c0.01-0.1,0.01-0.34,0-0.63v-7.22c0-1.67-1.97-1.8-6.29,2.77
		c-4.33,4.56-11.6,4.2-15.81,4.56c-4.19,0.37-16.29,6.55-19.75,10.98c-2.14,2.76-5.18,0.49-3.94-4.93h-0.03
		c0.58-2.46,1.66-5.74,3.38-10.09c2.4-6.06,11.34-9.6,11.34-9.6s0.92-0.4,1.73-1.19h-7.58c0,0.01-0.01,0.01-0.01,0.01H11.07
		l-0.02,45.33l39.7,38.23l12.77,0.01C75.53,311.75,80.02,302.64,83.65,297.01z"/>
	<path class="st1" d="M50.76,11.05L11.05,49.2v110.24l33.79,33.83h31.73c5.44-2.33,6.58-2.14,8.09-5.12
		c0.23-0.45,0.45-1.82,0.46-3.17c0.07-0.38,0.76-4.41-1.24-3.42c-3.39,1.68-10.23-2.73-15.37-0.13c-5.13,2.6-1.38-3.42-0.65-4.47
		c0,0,2.75-3.55,6.88-5.9c0.16-0.08,0.29-0.17,0.4-0.25c0.4-0.21,0.82-0.42,1.25-0.61c3.14-1.44,12.12-7.3,13.73-9.13
		c0.96-1.07,2.66-3.49,2.74-4.85c0.28-1.16,0.5-3.02-0.64-3.75c-1.71-1.1-3.08,1.07-5.76,2.24c-2.68,1.16-4.69,1.65-7.08,1.72
		c-2.29,0.08-4.48-0.78-5.85-0.57c-1.38,0.22-2.19-0.81,0.34-3.29c1.14-1.13,1.63-1.63,2.16-2.01c6-3.77,11.37-3.82,14.37-10.48
		c0,0,2.35-6.01-2.16-3.45c-2.48,1.41-3.83,3.45-10.91,3.45c-7.07,0-9.83,3.26-11.03,4.7c0,0-4.8,6.6-3.6-2.64
		c1.21-9.23,3.02-13.92,7.45-17.51c3.81-3.09,13.3-7.24,16.72-11.8c1.76-1.72,6.17-6.65,3.6-10.85c-1.07-1.75-3.71,2.81-6.43,3.39
		h-0.01c-3.08,0.82-7.04,1.81-10.05,1.21c-3.73-0.74-6.11,0.65-7.5,1.28c-1.38,0.62-4.03-1.35-0.81-4.96
		c4.31-4.83,14.74-11.14,21.77-14.91c0.96-0.39,3.32-1.4,5.47-2.75c0.04-0.02,0.09-0.04,0.12-0.06c0.53-0.23,1.32-0.71,1.77-1.28
		c1.54-1.25,2.58-2.67,2.22-4.1c-0.33-1.32-0.96-1.75-3.03-1.96c-1.65-0.17-4.36,1.71-6.65,1.53c-3.52-0.28-8.66,0.51-6.95-1.93
		c1.59-2.28,4.19-3.74,4.92-4.13c1.45-0.65,3.37-1.48,6.23-2.75c4.47-1.97,3.84-6.97,2.11-7.14c-2.7-0.28-9.97,2-4.85-3.73
		c0,0,2.44-2.4,4.87-3.96c1.94-1.1,3.53-1.53,5.44-2.2c1.21-0.42,4.31-3.15-3.08-3.42c0,0-4.15,0.1-3.35-1.76
		c0.64-1.24,4.27-3.49,4.27-3.49s2.94-1.96,4.12-3.14c1.15-1.07,1.95-1.94,1.9-2.9c-0.05-1.11-2.96-2.47-4.2-4.01
		c-0.88-1.11-0.14-1.5,0.36-1.64c0.26-0.05,0.57-0.08,0.96-0.08c2.99,0.01,3.86-2.93,5.6-10.61c0.53-2.31,0.57-2.8,1.33-2.81l0,0
		c0.01,0,0.01,0,0.01,0l0,0c0.06,0,0.11,0.01,0.16,0.01c0,0,0.75,3.9,1.83,8.24c0.9,2.39,1.93,3.41,3.69,3.4
		c0.38,0,0.69,0.03,0.96,0.09c0.49,0.13,1.25,0.52,0.36,1.63c-0.68,0.84-2.7,2.23-2.85,3.07c-0.6,2.39,1.71,3.24,4.08,3.41
		c3.35,0.23,1.95,2.27-1.65,4.9c-3.49,2.55,5.42,7.97,5.42,7.97c5.09,3.86,1.46,4.86,0.42,5.4c-1.03,0.53-3.89,2.25-1.01,3.35
		c2.87,1.08,6.82,4.99,6.82,4.99c5.11,5.73-2.15,3.45-4.85,3.73c-1.73,0.18-2.36,5.18,2.11,7.15c6.81,3.01,8.31,3.52,10.73,5.28
		c4.49,3.27,2.11,6.04-3.5,5.07c0,0-3.6-0.89-6.13-0.4c-1.56,0.3-2.66,0.65-3.39,1.02c-0.38,0.58-1.28,2.85,6.54,5.22
		c3.74,1.13,8.37,3.9,12.48,7.06l64.1-0.07V49.27l-39.72-38.22H50.76z"/>
	<path class="st1" d="M214.4,44.57L168.09,0H46.31L0,44.5v119.52l40.26,40.3h18.46c-0.45,1.21-1.04,3.09,0.24,4.92
		c1.4,2.02,3.81,2.02,4.71,2.02c1.1,0,2.6-0.13,4.93-0.43l0.01,0c0,0,0.97,0.82-1.98,1.77v0.01c-2.42,0.84-4.53,2.23-5.24,4.62
		c-0.05,0.17-0.06,0.33-0.1,0.5H0.02L0,278.81l46.3,44.64h121.79l46.31-44.57V164.4l-40.26-40.24h-34.15
		c-0.02-0.01-0.03-0.02-0.05-0.02c-1.51-0.89-3.05-1.8-4.47-2.73l-0.51-0.32l-0.1-0.03c-0.75-0.46-1.56-1.05-2.44-1.79
		c-0.76-0.61-1.39-1.19-1.87-1.72l-0.13-0.13c-0.91-0.93-1.68-1.81-2.3-2.59c5.34,1.52,11.13,1.89,13.91,1.98h0.35
		c0.19,0,0.36,0.01,0.52,0.01l0.25,0.02c0.66,0.05,1.18,0.17,1.52,0.26c0.36,0.15,0.68,0.3,0.96,0.43l1.45,0.53
		c0.34,0.07,0.7,0.11,1.06,0.11c2.1,0,4.05-1.25,4.94-3.17c0.31-0.67,0.75-2,0.4-3.73l60.91,0.03V44.57z M208.87,105.76l-63.47-0.01
		c1.33,1.38,2.44,2.7,3.2,3.88c2.85,3.42,0.37,5.28-0.98,4.71c0,0-1.05-0.5-1.73-0.76c-0.64-0.2-3.36-0.51-3.74-0.5
		c-3.37-0.11-12.46-0.69-17.98-3.83c-2.17-1.23-2.39,1.74-1.44,4.08c0.51,1.26,2.45,4.03,5.05,6.67c0.65,0.73,1.45,1.45,2.34,2.15
		c1.04,0.89,2.14,1.69,3.27,2.33c0.01,0.01,0.02,0.01,0.02,0.02c2.93,1.88,6.14,3.63,8.53,5.18l29.91-0.01l37.03,37.01v109.84
		l-43.02,41.39H48.53L5.53,276.46l0.02-53.21h57.58c0,0.01,0.01,0.01,0.01,0.01h5.66c-0.65-0.76-1.57-1.57-2.86-2.45
		c0,0-5.02-4.25,6.61-5.69c5.07-0.62,10.36-3.73,12.43-8.69c0.39-3.25-4.03-4.46-6.24-2.96c-2.27,1.52-7.1,3.19-9.77,3.55
		c-8.37,1.15-7.42,0.4-6.49-2.21c0.43-1.21,1.25-3.66,3.93-6.02l-23.88-0.01L5.53,161.72V46.85L48.54,5.52h117.31l43.02,41.4V105.76
		z"/>
</g>
<g>
	<path class="st2" d="M163.63,313.98l-11.14-0.01c-5.6-0.06-14.27-3.84-16.88-6.97c-3.47-4.15-6.06-5.61-8.34-6.91
		c-1.59-0.9-3.08-1.75-4.73-3.4c-5.13-5.13-6.07-11.11-6.31-16.79l0-29.28c-0.04-0.5-0.01-1.92,0.54-2.52
		c0.16-0.18,0.36-0.26,0.61-0.26c0.36,0,1.02,0.18,2.12,1.03c2.84,2.22,4.96,2.96,8.38,2.96c1.48,0,3.18-0.13,5.32-0.3l1.03-0.08
		c5.99-0.49,12.45,3.86,17.09,6.98c0.99,0.67,1.87,1.26,2.65,1.74l0.79,0.49c1.77,1.11,3.99,2.5,5.62,2.5c0.75,0,1.34-0.3,1.73-0.86
		c0.82-1.21,1.36-4.23-3.45-16.42c-1.78-4.5-6.96-7.63-9.88-9.07c-1-0.54-2.2-1.86-2.45-3.25c-0.17-0.91,0.09-1.75,0.71-2.46
		c0.11-0.1,2.78-2.49,2.93-4.96c0.05-0.89-0.23-1.69-0.82-2.35c-1.05-1.27-3.52-2.13-7.53-2.63c-4.48-0.55-9.92-3.34-12.04-8.35
		c-0.08-0.72,0.12-1.34,0.58-1.85c0.64-0.72,1.76-1.17,2.93-1.17c0.77,0,1.49,0.2,2.02,0.56c2.42,1.61,7.34,3.28,9.97,3.63
		c2.7,0.37,4.3,0.53,5.37,0.53c1.13,0,1.74-0.19,2.04-0.62c0.38-0.55,0.12-1.25-0.22-2.14c-0.07-0.18-0.14-0.37-0.24-0.67
		c-0.6-1.67-1.99-5.58-7.51-8.48c-4.68-2.45-7.72-3.66-9.74-4.45c-3-1.19-3.8-1.5-4.91-3.69c-0.36-0.73-0.7-4.29,0-5.43
		c0.15-0.24,0.28-0.24,0.33-0.24c0.09,0,0.29,0.04,0.66,0.31l0.06,0.04c0.51,0.54,1.14,1.22,1.9,1.8c3.08,2.37,5.51,2.6,9.48,2.51
		l0.28-0.01c2.51,0,3.44,0.72,4.33,1.41c0.39,0.3,0.79,0.62,1.3,0.84l0.27,0.13c0.61,0.28,1.23,0.58,1.78,0.58
		c0.49,0,0.77-0.24,0.91-0.44c0.35-0.49,0.57-1.44-0.55-4.81c-2.39-7.26-6.43-11.98-12.72-14.85c-3.08-1.41-11.98-7.22-13.57-9.01
		c-1.44-1.62-2.91-4.17-2.59-4.89c0.02-0.04,0.08-0.18,0.5-0.18c0.23,0,0.53,0.04,0.88,0.14c1.12,0.3,2.12,0.74,3.09,1.17
		c1.74,0.77,3.54,1.57,6.13,1.57c1.36,0,2.81-0.21,4.43-0.65c0.01-0.01,0.89-0.17,1.95-0.17c1.04,0,1.91,0.16,2.51,0.47
		c0.4,0.21,0.91,0.32,1.43,0.32c1.03,0,1.82-0.46,2.06-1.19c0.47-1.49-1.31-3.66-5.3-6.46c-2.27-1.59-4.51-2.6-6.49-3.49
		c-3.8-1.72-6.81-3.07-8.83-7.55c-0.41-0.74-0.93-2.13-0.61-2.73l0.09-0.18c0.28-0.4,1.16-1.24,2.44-1.24
		c0.35,0,0.71,0.06,1.06,0.19c0.66,0.23,1.84,0.71,3.27,1.28c3.4,1.36,8.06,3.23,10.46,3.8c1.53,0.35,2.91,0.93,4.11,1.74
		c0.86,0.51,2.69,1.27,4.23,1.27c0.84,0,1.5-0.23,1.96-0.68c0.43-0.44,0.65-1.06,0.64-1.92c-0.79-5.77-2.31-10.96-3.8-12.91
		c-0.94-1.23-3.37-4.24-5.76-5.63c-1.15-0.67-5.16-3.01-8.43-5.11l-0.12-0.08c-1.05-0.61-2.13-1.37-3.21-2.29
		c-0.91-0.72-1.68-1.43-2.3-2.12c-2.55-2.59-4.45-5.29-4.95-6.52c-0.56-1.37-0.67-2.92-0.27-3.52c0.22-0.31,0.56-0.27,1.06,0.02
		c5.57,3.17,14.58,3.77,18.22,3.89c0.38,0,3.02,0.29,3.57,0.46c0.66,0.26,1.69,0.75,1.72,0.76c0.96,0.39,2.22-0.14,2.7-1.16
		c0.32-0.68,0.59-2.13-1.15-4.21c-0.75-1.16-1.84-2.49-3.26-3.96c-0.03-0.03-3.16-3.2-6.21-5.5c-2.57-1.93-8.92-6.01-12.62-7.13
		c-4.97-1.5-6.14-2.91-6.38-3.6c-0.12-0.36-0.06-0.64,0.04-0.83c0.74-0.35,1.8-0.66,3.16-0.93c0.47-0.09,1.02-0.14,1.63-0.14
		c2.1,0,4.28,0.53,4.33,0.54c3.29,0.58,5.77-0.11,6.29-1.7c0.24-0.73,0.24-2.23-2.44-4.18c-2.04-1.49-3.47-2.11-7.71-3.97
		c-0.9-0.39-1.92-0.84-3.1-1.37c-2.86-1.26-3.29-3.71-3.1-4.96c0.12-0.74,0.47-1.28,0.85-1.32c0.61-0.07,1.46,0.01,2.38,0.09
		c0.73,0.06,1.48,0.12,2.15,0.12c0.93,0,2.04-0.1,2.4-0.92c0.37-0.83-0.18-1.99-1.8-3.81c-0.16-0.16-4.06-3.98-6.98-5.09
		c-0.59-0.23-0.94-0.49-0.95-0.73c-0.03-0.43,0.8-1.16,2.01-1.79c0.09-0.05,0.21-0.1,0.34-0.16c0.74-0.34,1.99-0.91,2.12-2.09
		c0.12-1.11-0.79-2.39-2.85-3.95c-1.65-1-5.93-4.04-6.02-6.08c-0.02-0.45,0.18-0.81,0.62-1.13c3.71-2.71,3.89-3.9,3.7-4.57
		c-0.29-1.02-1.79-1.12-2.28-1.16c-1.71-0.12-2.94-0.58-3.46-1.29c-0.3-0.41-0.37-0.92-0.21-1.59c0.07-0.38,0.97-1.18,1.57-1.71
		c0.47-0.42,0.91-0.81,1.19-1.15c0.45-0.56,0.6-1.07,0.46-1.51c-0.13-0.4-0.5-0.7-1.08-0.84c-0.3-0.07-0.64-0.11-1.07-0.11
		c-1.51,0-2.39-0.84-3.23-3.05c-1.07-4.28-1.82-8.17-1.83-8.21l-0.08-0.37l-0.52-0.01c-1.06,0.01-1.22,0.71-1.64,2.59l-0.13,0.57
		c-1.72,7.6-2.56,10.25-5.21,10.25c-0.34,0-0.66,0.03-1.04,0.1c-0.71,0.2-0.96,0.58-1.05,0.86c-0.14,0.44,0.01,0.95,0.46,1.5
		c0.57,0.71,1.43,1.35,2.26,1.98c0.81,0.6,1.82,1.36,1.84,1.77c0.04,0.73-0.59,1.46-1.77,2.56c-1.13,1.13-4.02,3.06-4.03,3.07
		c-0.38,0.24-3.76,2.35-4.45,3.7c-0.26,0.61-0.11,1.05,0.06,1.31c0.64,0.98,2.72,1.09,3.59,1.09l0.1,0c3.98,0.15,4.3,0.98,4.33,1.15
		c0.07,0.46-0.81,1.19-1.38,1.39c-0.38,0.14-0.75,0.26-1.11,0.38c-1.45,0.49-2.81,0.95-4.42,1.87c-2.45,1.56-4.85,3.92-4.97,4.04
		c-1.6,1.8-2.15,2.97-1.79,3.79c0.37,0.82,1.47,0.92,2.4,0.92c0.67,0,1.42-0.06,2.15-0.13c0.92-0.08,1.78-0.16,2.38-0.09
		c0.39,0.04,0.74,0.59,0.86,1.33c0.2,1.24-0.24,3.68-3.1,4.94c-1.35,0.6-2.5,1.1-3.49,1.53c-1.09,0.48-1.98,0.87-2.77,1.22
		c-1.25,0.67-3.59,2.13-5.08,4.27c-0.43,0.61-0.53,1.14-0.3,1.58c0.51,0.97,2.42,0.98,4.84,0.99c0.94,0,1.9,0.01,2.76,0.07
		c1.3,0.1,2.75-0.42,4-0.87c1.02-0.37,1.98-0.73,2.63-0.66c1.98,0.21,2.38,0.56,2.64,1.62c0.27,1.08-0.43,2.3-2.14,3.71
		c-0.37,0.48-1.07,0.92-1.59,1.15l-0.18,0.09c-2.27,1.41-4.71,2.43-5.45,2.73c-7.88,4.22-17.76,10.39-21.9,15.02
		c-1.99,2.23-1.75,3.76-1.43,4.47c0.47,1.05,1.8,1.62,2.77,1.19l0.45-0.21c1.11-0.52,2.63-1.24,4.77-1.24c0.65,0,1.32,0.06,2,0.2
		c0.64,0.13,1.34,0.19,2.11,0.19c2.79,0,6.01-0.85,8.12-1.4c1.35-0.29,2.6-1.4,3.71-2.38c0.74-0.66,1.58-1.4,2-1.4
		c0.05,0,0.13,0,0.24,0.18c2.37,3.86-1.68,8.47-3.57,10.33c-2.12,2.82-6.69,5.52-10.72,7.9c-2.32,1.37-4.51,2.67-5.93,3.82
		c-4.37,3.53-6.37,8.19-7.62,17.81c-0.35,2.73-0.23,4.33,0.38,5.03c0.24,0.27,0.54,0.41,0.89,0.41c1.29,0,2.85-2.06,3.14-2.45
		c1.13-1.35,3.77-4.53,10.68-4.53c5.87,0,7.96-1.42,9.82-2.67c0.43-0.29,0.85-0.58,1.31-0.84c1.62-0.91,1.84-0.58,1.95-0.42
		c0.38,0.55-0.02,2.26-0.42,3.27c-2,4.45-5.01,5.81-8.81,7.52c-1.72,0.78-3.5,1.58-5.41,2.78c-0.53,0.38-1,0.84-2.01,1.85l-0.21,0.2
		c-1.45,1.43-2.02,2.56-1.69,3.36c0.23,0.57,0.9,0.84,1.74,0.71c0.62-0.1,1.46,0.06,2.38,0.22c0.94,0.17,2,0.36,3.1,0.36l0.31-0.01
		c2.48-0.08,4.51-0.57,7.25-1.76c0.99-0.43,1.79-0.98,2.49-1.47c1.18-0.81,1.98-1.35,2.83-0.81c0.92,0.59,0.68,2.29,0.43,3.34
		c-0.06,1.12-1.59,3.42-2.62,4.57c-1.6,1.8-10.51,7.61-13.58,9.01c-0.44,0.2-0.85,0.41-1.35,0.68c-0.1,0.07-0.2,0.14-0.33,0.21
		c-4.17,2.36-6.9,5.87-7.03,6.03c-0.11,0.16-2.68,3.86-1.95,5.28c0.11,0.21,0.39,0.56,1.03,0.56c0.52,0,1.23-0.23,2.15-0.7
		c1.05-0.53,2.26-0.79,3.7-0.79c1.73,0,3.51,0.37,5.22,0.73c2.58,0.54,4.96,0.91,6.44,0.19c0.38-0.19,0.42-0.14,0.51-0.04
		c0.36,0.44,0.26,1.99,0.07,3.04c-0.01,1.39-0.25,2.64-0.41,2.96c-1.11,2.2-1.91,2.51-4.91,3.7c-0.82,0.33-1.79,0.71-2.96,1.21
		c-0.32,0.14-7.9,3.57-10.26,5.6c-2.34,2.02-3.56,4.76-4.07,6.22l-0.21,0.56c-0.33,0.89-0.6,1.6-0.22,2.15
		c0.3,0.44,0.91,0.62,2.04,0.62c1.07,0,2.68-0.16,5.37-0.53c2.63-0.36,7.55-2.02,9.96-3.63c0.53-0.36,1.25-0.55,2.02-0.55
		c1.17,0,2.3,0.45,2.93,1.17c0.46,0.52,0.65,1.14,0.58,1.86c-2.12,5-7.56,7.8-12.04,8.35c-4.86,0.6-7.47,1.74-8,3.49
		c-0.48,1.6,1.08,2.95,1.19,3.04c1.3,0.88,2.17,1.73,2.79,2.38c0.68,0.72,1.37,1.89,1.27,3.02c-0.06,0.7-0.44,1.87-2.71,2.94
		c-2.27,1.06,0,0,0,0c-0.37,0.15-9.16,3.68-11.6,9.85c-1.64,4.15-2.78,7.56-3.4,10.15l-0.11,0.56h0.02
		c-0.4,2.21-0.13,4.08,0.76,5.19c1.05,1.32,2.88,1.16,4.11-0.43c3.42-4.39,15.52-10.46,19.43-10.81c0.62-0.05,1.31-0.09,2.05-0.13
		c4.32-0.24,10.24-0.56,14.04-4.58c3.24-3.42,4.68-3.69,5.05-3.69c0.16,0,0.46,0,0.46,0.61v7.23c0.01,0.27,0.01,0.49,0,0.62
		l-0.03,24.83c-0.09,7.66-0.62,15.19-3.81,18.36c-0.9,0.9-1.95,1.85-3.06,2.85c-2.68,2.41-5.71,5.13-7.68,8.19
		c-0.34,0.53-0.7,1.09-1.06,1.68c-3.41,5.46-8.08,13.33-18.7,13.85l-12.76-0.01L163.63,313.98z"/>
	<path class="st0" d="M163.63,315.2l-100.05-0.06h-0.06l-12.76,0l0-2.44l12.76,0.01c9.7-0.5,14.17-7.66,17.43-12.89l0.24-0.39
		c0.37-0.59,0.72-1.16,1.07-1.69c2.06-3.19,5.16-5.98,7.89-8.44c1.1-0.99,2.14-1.91,3.02-2.8c2.89-2.88,3.36-10.48,3.45-17.52
		l0.03-24.82c0.01-0.19,0.01-0.37,0-0.59l0-6.29c-0.66,0.39-1.76,1.22-3.4,2.96c-4.13,4.36-10.32,4.7-14.84,4.95
		c-0.75,0.04-1.42,0.08-2.03,0.13c-3.64,0.32-15.38,6.24-18.58,10.35c-1.64,2.12-4.53,2.31-6.02,0.44c-0.9-1.13-1.31-2.78-1.18-4.73
		H50.5l0.36-2.01c0.64-2.69,1.8-6.16,3.46-10.37c2.54-6.42,11.1-10.06,12.23-10.52c1.27-0.6,1.94-1.25,2-1.92
		c0.06-0.69-0.43-1.55-0.95-2.09c-0.61-0.64-1.4-1.41-2.59-2.22c-0.17-0.14-2.39-1.95-1.67-4.39c0.69-2.3,3.55-3.68,9.01-4.35
		c4.07-0.5,9-3,10.98-7.44c0-0.29-0.09-0.53-0.29-0.76c-0.67-0.75-2.52-0.98-3.36-0.41c-2.58,1.73-7.66,3.45-10.48,3.83
		c-2.75,0.38-4.41,0.54-5.53,0.54c-1.11,0-2.34-0.14-3.04-1.15c-0.74-1.08-0.31-2.24,0.08-3.27l0.21-0.57
		c0.55-1.56,1.87-4.52,4.42-6.72c2.34-2.02,9.19-5.17,10.54-5.78c1.22-0.52,2.2-0.91,3.03-1.24c2.92-1.16,3.37-1.34,4.27-3.11
		c0.06-0.17,0.27-1.19,0.28-2.43c0.1-0.6,0.15-1.14,0.16-1.56c-1.49,0.39-3.99,0.03-6.21-0.43c-2.91-0.62-6.1-1.08-8.12-0.05
		c-2.51,1.28-4.09,0.98-4.8-0.38c-0.94-1.81,0.86-4.87,2.02-6.54c0.15-0.2,3.02-3.9,7.43-6.39l0.35-0.22
		c0.52-0.28,0.96-0.5,1.42-0.71c3.17-1.45,11.8-7.15,13.18-8.72c1.19-1.32,2.29-3.25,2.32-3.83c0.35-1.57,0.2-2.16,0.12-2.25
		c-0.34-0.03-0.95,0.43-1.48,0.8c-0.71,0.49-1.59,1.09-2.69,1.57c-2.9,1.26-5.06,1.78-7.7,1.87l-0.34,0.01
		c-1.22,0-2.39-0.21-3.32-0.37c-0.73-0.13-1.29-0.24-1.75-0.24c-0.43,0.05-0.63,0.06-0.82,0.06c-1.17,0-2.09-0.56-2.47-1.51
		c-0.8-1.95,1.28-4,1.96-4.68c1.23-1.22,1.74-1.74,2.36-2.17c2.04-1.29,3.86-2.11,5.62-2.91c3.72-1.68,6.39-2.89,8.21-6.91
		c0.18-0.48,0.32-1,0.39-1.42c-0.07,0.04-0.14,0.08-0.21,0.12c-0.44,0.24-0.83,0.51-1.23,0.78c-1.9,1.28-4.26,2.88-10.5,2.88
		c-6.33,0-8.64,2.76-9.74,4.09c-0.6,0.83-2.29,2.89-4.07,2.89c-0.7,0-1.34-0.29-1.8-0.82c-0.88-1-1.09-2.8-0.68-5.99
		c1.3-9.96,3.41-14.83,8.06-18.59c1.48-1.2,3.71-2.52,6.06-3.91c3.95-2.33,8.41-4.96,10.38-7.59c1.62-1.61,4.81-5.18,3.88-8.15
		c-0.25,0.23-0.55,0.49-0.76,0.68c-1.23,1.09-2.61,2.31-4.26,2.66c-2.74,0.72-7.55,1.85-10.73,1.22c-2.56-0.52-4.63,0.29-6.01,0.94
		l-0.46,0.21c-1.63,0.72-3.67-0.19-4.39-1.8c-0.44-0.98-0.82-3.04,1.63-5.78c4.24-4.75,14.26-11,22.23-15.28
		c1.01-0.42,3.29-1.4,5.38-2.69l0.28-0.15c0.49-0.21,0.98-0.56,1.18-0.81c1.42-1.21,2.06-2.11,1.92-2.66
		c-0.12-0.46-0.14-0.55-1.59-0.7c0,0-0.01,0-0.01,0c-0.48,0-1.37,0.33-2.08,0.59c-1.39,0.51-2.74,0.96-4.11,0.96l-0.4-0.01
		c-0.84-0.07-1.77-0.07-2.67-0.07c-2.84-0.01-5.07-0.02-5.92-1.65c-0.31-0.6-0.5-1.57,0.38-2.83c1.65-2.36,4.16-3.93,5.51-4.65
		c0.73-0.34,1.46-0.66,2.32-1.04l4.01-1.76c2.74-1.21,2.41-3.55,2.39-3.64c-0.02-0.14-0.05-0.25-0.08-0.33
		c-0.51-0.02-1.09,0.04-1.73,0.1c-0.88,0.08-1.67,0.15-2.38,0.15c-0.76,0-2.77,0-3.51-1.65c-0.75-1.68,0.58-3.52,1.99-5.09
		c0.07-0.07,2.61-2.58,5.22-4.25c1.77-1.01,3.25-1.51,4.68-1.99l0.91-0.31c-0.51-0.1-1.28-0.2-2.4-0.24c-0.01,0-0.02,0-0.03,0
		c-1.66,0-3.74-0.29-4.63-1.63c-0.47-0.72-0.53-1.6-0.16-2.46c0.81-1.58,3.71-3.5,4.93-4.25c0.52-0.34,2.9-1.99,3.81-2.9
		c0.89-0.83,1.23-1.25,1.35-1.47c-0.31-0.31-0.95-0.78-1.29-1.03c-0.89-0.67-1.81-1.35-2.48-2.19c-0.89-1.11-0.86-2.04-0.67-2.63
		c0.15-0.46,0.58-1.29,1.88-1.66c0.58-0.11,0.96-0.15,1.38-0.15c1.57,0,2.28-1.65,4.02-9.3l0.13-0.57c0.42-1.88,0.79-3.52,2.82-3.53
		l1.51,0.03l0.29,1.3c0.02,0.09,0.75,3.91,1.82,8.18c0.82,2.13,1.48,2.13,2.05,2.13c0.52,0,0.96,0.05,1.36,0.14
		c0.98,0.25,1.67,0.83,1.94,1.64c0.2,0.6,0.24,1.54-0.66,2.67c-0.3,0.37-0.76,0.79-1.26,1.24c-0.37,0.33-1.17,1.04-1.32,1.3
		c-0.05,0.29,0.03,0.41,0.06,0.45c0.17,0.24,0.91,0.67,2.56,0.79c1.88,0.13,3.01,0.81,3.36,2.03c0.48,1.68-0.72,3.38-4.15,5.88
		c-0.09,1.06,2.51,3.48,5.31,5.19c1.64,1.23,3.66,3.02,3.43,5.12c-0.2,1.87-1.97,2.67-2.81,3.06l-0.85-0.94l0.56,1.08
		c-0.32,0.16-0.58,0.32-0.79,0.46c3.18,1.4,6.97,5.17,7.01,5.2c1.46,1.64,2.8,3.48,2.05,5.16c-0.73,1.65-2.75,1.65-3.51,1.65
		c-0.69,0-1.47-0.07-2.22-0.13c-0.86-0.08-1.39-0.11-1.87-0.12c-0.03,0.08-0.06,0.18-0.08,0.32c-0.02,0.1-0.35,2.45,2.39,3.65
		l2.84,1.25c4.59,2.02,6.05,2.65,8.2,4.21c3.3,2.41,3.22,4.51,2.88,5.55c-0.72,2.21-3.74,3.19-7.65,2.52
		c-0.57-0.14-3.75-0.74-5.53-0.41c-0.9,0.18-1.57,0.36-2.06,0.52c0.46,0.43,1.75,1.39,5.37,2.48c4.08,1.23,10.63,5.54,13,7.33
		c2.99,2.24,6.01,5.27,6.34,5.61c1.48,1.53,2.63,2.93,3.42,4.16c2.09,2.48,1.67,4.45,1.23,5.38c-0.72,1.55-2.73,2.4-4.26,1.77
		c-0.14-0.07-1.08-0.51-1.7-0.75c-0.32-0.09-2.71-0.37-3.13-0.38c-3.63-0.12-12.46-0.72-18.29-3.77c0.04,0.45,0.16,1.07,0.42,1.7
		c0.39,0.97,2.1,3.51,4.69,6.13c0.61,0.68,1.33,1.34,2.19,2.02c1.05,0.89,2.07,1.62,3.06,2.19c3.29,2.12,7.08,4.34,8.56,5.2
		c2.49,1.44,4.9,4.35,6.12,5.95c1.63,2.13,3.21,7.43,4.04,13.48c0.03,1.32-0.32,2.27-0.99,2.94c-0.69,0.69-1.64,1.05-2.82,1.05
		c-1.92,0-4.02-0.94-4.85-1.44c-1.12-0.75-2.37-1.28-3.76-1.6c-2.5-0.59-7.19-2.47-10.63-3.85c-1.51-0.61-2.62-1.05-3.24-1.27
		c-1.06-0.38-1.96,0.4-2.09,0.6c-0.01,0.15,0.2,0.94,0.58,1.63c1.87,4.15,4.56,5.36,8.27,7.03c2.06,0.93,4.34,1.96,6.69,3.61
		c4.6,3.22,6.43,5.71,5.77,7.82c-0.41,1.26-1.64,2.04-3.22,2.04c-0.72,0-1.41-0.15-1.99-0.46c-0.25-0.12-0.83-0.34-1.96-0.34
		c-0.88,0-1.61,0.13-1.71,0.14c-1.65,0.45-3.2,0.68-4.67,0.68c-2.85,0-4.85-0.88-6.62-1.67c-0.8-0.36-1.62-0.71-2.48-0.98
		c0.43,0.74,1.15,1.87,2,2.83c1.38,1.55,9.99,7.26,13.17,8.71c6.61,3.02,10.86,7.97,13.37,15.58c1.06,3.22,1.16,4.82,0.37,5.91
		c-0.9,1.23-2.84,0.88-4.2,0.24c-0.89-0.41-1.37-0.78-1.79-1.1c-0.86-0.66-1.51-1.17-3.61-1.17l-1.51,0.02c-3.42,0-5.99-0.45-9-2.78
		c-0.52-0.4-0.97-0.83-1.37-1.23c-0.07,1.12,0.06,2.77,0.27,3.26c0.89,1.76,1.34,1.94,4.26,3.09c2.04,0.81,5.12,2.03,9.86,4.5
		c5.94,3.11,7.45,7.34,8.09,9.14l0.24,0.65c0.39,1.04,0.83,2.2,0.08,3.27c-0.69,1.01-1.92,1.15-3.04,1.15
		c-1.13,0-2.78-0.16-5.53-0.54c-2.8-0.37-7.88-2.09-10.48-3.82c-0.85-0.57-2.71-0.34-3.37,0.4c-0.2,0.22-0.29,0.46-0.29,0.76
		c1.99,4.44,6.93,6.93,10.99,7.44c4.4,0.54,7.04,1.51,8.32,3.06c0.78,0.87,1.17,1.99,1.1,3.2c-0.17,2.83-2.8,5.32-3.33,5.79
		c-0.28,0.33-0.42,0.8-0.32,1.34c0.18,0.96,1.09,1.99,1.83,2.39c3.05,1.52,8.5,4.81,10.44,9.7c4.94,12.51,4.45,15.9,3.32,17.55
		c-0.61,0.9-1.58,1.4-2.73,1.4c-1.98,0-4.36-1.49-6.26-2.69l-0.78-0.49c-0.73-0.45-1.59-1.03-2.54-1.66
		c-4.65-3.13-10.84-7.28-16.45-6.88l-1.03,0.08c-7.41,0.59-10.23,0.45-14.54-2.92c-0.59-0.45-0.96-0.64-1.17-0.72
		c-0.1,0.33-0.17,0.95-0.13,1.41l0.01,29.37c0.23,5.39,1.11,11.09,5.95,15.93c1.53,1.53,2.89,2.3,4.47,3.2
		c2.38,1.35,5.07,2.88,8.67,7.19c2.28,2.72,10.56,6.45,15.92,6.53l11.17,0V315.2z M72.32,312.71l70.14,0.04
		c-3.34-1.39-6.32-3.21-7.78-4.96c-3.33-3.98-5.81-5.39-8.01-6.63c-1.59-0.9-3.23-1.84-4.99-3.6c-5.43-5.43-6.41-11.67-6.66-17.6
		l-0.01-29.33c-0.01-0.14-0.14-2.25,0.86-3.34c0.92-1,2.45-0.86,4.37,0.64c3.83,2.99,6.09,2.95,12.86,2.41l1.03-0.08
		c6.27-0.54,13.07,3.96,17.85,7.18c1.07,0.72,1.89,1.27,2.61,1.71l0.8,0.49c1.56,0.98,3.7,2.32,4.97,2.32
		c0.44,0,0.62-0.18,0.72-0.33c0.58-0.85,0.89-3.98-3.57-15.29c-1.64-4.14-6.53-7.06-9.3-8.43c-1.32-0.71-2.79-2.33-3.11-4.12
		c-0.23-1.28,0.11-2.48,0.99-3.47c0.94-0.85,2.54-2.68,2.63-4.23c0.04-0.57-0.13-1.05-0.51-1.47c-0.61-0.73-2.24-1.68-6.77-2.23
		c-4.82-0.6-10.71-3.64-13.01-9.09l-0.09-0.35c-0.11-1.05,0.19-2.01,0.87-2.78c1.45-1.64,4.73-2.05,6.55-0.82
		c2.25,1.5,7.01,3.1,9.45,3.43c4.9,0.68,6.26,0.4,6.28,0.38c-0.04-0.06-0.24-0.6-0.39-0.99l-0.26-0.7c-0.54-1.53-1.83-5.13-6.93-7.8
		c-4.62-2.41-7.63-3.61-9.62-4.4c-3.09-1.22-4.23-1.68-5.55-4.28c-0.51-1.02-0.92-5.04,0.05-6.61c0.59-0.95,1.62-1.11,2.76-0.27
		c0.73,0.73,1.3,1.33,1.97,1.85c2.49,1.92,4.48,2.27,7.51,2.27l1.51-0.02c2.92,0,4.11,0.92,5.07,1.66c0.36,0.28,0.69,0.53,1.06,0.7
		l0.3,0.14c0.41,0.19,0.97,0.45,1.25,0.46c-0.01-0.05,0.18-0.74-0.78-3.65c-2.28-6.92-6.11-11.41-12.06-14.13
		c-2.95-1.36-12.17-7.27-13.98-9.32c-0.04-0.04-3.68-4.21-2.78-6.2c0.21-0.46,1.04-1.2,2.8-0.71c1.21,0.32,2.25,0.77,3.26,1.23
		c1.71,0.75,3.31,1.46,5.65,1.46c1.25,0,2.6-0.2,4.11-0.61c0.14-0.05,1.19-0.21,2.27-0.21c1.25,0,2.29,0.21,3.08,0.62
		c0.58,0.3,1.68,0.12,1.77-0.17c0.01-0.05,0.38-1.43-4.84-5.09c-2.16-1.51-4.33-2.49-6.24-3.36c-3.93-1.77-7.28-3.29-9.49-8.18
		c-0.19-0.33-1.3-2.47-0.57-3.81l0.17-0.29c0.45-0.66,1.69-1.77,3.44-1.77c0.49,0,0.99,0.09,1.47,0.26
		c0.64,0.23,1.78,0.68,3.15,1.23c3.54,1.41,8.14,3.26,10.45,3.8c1.68,0.39,3.2,1.03,4.51,1.91c0.93,0.55,3.91,1.5,4.65,0.74
		c0.07-0.07,0.3-0.3,0.29-1.05c-0.74-5.34-2.2-10.42-3.55-12.19c-0.89-1.17-3.2-4.04-5.4-5.32c-1.5-0.87-5.32-3.11-8.48-5.13
		c-1.19-0.7-2.34-1.51-3.46-2.47c-0.93-0.74-1.75-1.5-2.41-2.23c-2.65-2.69-4.61-5.51-5.18-6.88c-0.61-1.51-0.9-3.54-0.14-4.66
		c0.56-0.81,1.52-1,2.66-0.36c5.34,3.04,14.13,3.62,17.66,3.74l0,0c0.43,0,3.2,0.3,3.89,0.52c0.78,0.3,1.87,0.81,1.9,0.83h0
		c0.44,0,0.87-0.21,1.05-0.59c0.16-0.34,0.38-1.3-0.98-2.92c-0.79-1.22-1.84-2.49-3.2-3.9c-0.31-0.32-3.22-3.23-6.07-5.37
		c-2.44-1.83-8.73-5.88-12.24-6.94c-4.24-1.28-6.59-2.7-7.18-4.35c-0.22-0.62-0.18-1.25,0.1-1.8l0.19-0.36l0.37-0.18
		c0.83-0.39,1.99-0.74,3.45-1.02c2.1-0.4,5.69,0.23,6.46,0.41c0.64,0.11,1.31,0.17,1.91,0.17c1.81,0,2.79-0.53,2.96-1.06
		c0.17-0.53-0.26-1.56-2-2.83c-1.93-1.4-3.33-2.02-7.48-3.84l-3.11-1.37c-3.54-1.56-4.06-4.66-3.81-6.26
		c0.21-1.33,0.97-2.24,1.93-2.34c0.56-0.06,1.45-0.01,2.39,0.08c0.92,0.08,1.63,0.14,2.26,0.14c1.07,0,1.28-0.18,1.3-0.2
		c0-0.01,0.13-0.56-1.6-2.5c-0.92-0.93-4.22-3.9-6.5-4.76c-1.11-0.42-1.7-1.03-1.73-1.81c-0.07-1.24,1.41-2.28,2.66-2.93l0.4-0.19
		c0.5-0.23,1.35-0.62,1.41-1.11c0.02-0.23-0.08-1.1-2.38-2.84c-0.56-0.34-6.37-3.95-6.5-7c-0.02-0.6,0.15-1.46,1.12-2.17
		c3.3-2.41,3.25-3.24,3.24-3.25c-0.01-0.01-0.2-0.21-1.19-0.28c-2.12-0.15-3.63-0.77-4.36-1.79c-0.51-0.71-0.65-1.58-0.4-2.59
		c0.1-0.61,0.66-1.2,1.95-2.34c0.45-0.4,0.82-0.72,1.05-1c0.19-0.24,0.24-0.39,0.24-0.43c-0.4-0.04-0.66-0.06-0.98-0.06
		c-2.57,0-3.65-1.94-4.37-3.84c-0.69-2.72-1.26-5.33-1.58-6.91c-0.06,0.24-0.12,0.49-0.17,0.74l-0.13,0.57
		c-1.58,6.98-2.54,11.2-6.39,11.2c-0.27,0-0.53,0.02-0.83,0.08c-0.09,0.02-0.04,0.17,0.15,0.4c0.48,0.6,1.27,1.19,2.04,1.77
		c1.41,1.05,2.27,1.74,2.33,2.68c0.07,1.33-0.94,2.38-2.16,3.52c-1.22,1.23-4.21,3.21-4.23,3.23c-1.96,1.22-3.68,2.6-3.99,3.21
		c0.1,0.26,0.91,0.63,2.57,0.63c2.37,0.08,5.37,0.41,5.63,2.19c0.21,1.3-1.32,2.41-2.17,2.71l-1.13,0.39
		c-1.38,0.47-2.69,0.91-4.2,1.77c-2.34,1.49-4.68,3.82-4.71,3.84c-1.67,1.87-1.54,2.43-1.54,2.43c0,0,0.2,0.2,1.29,0.2
		c0.64,0,1.35-0.06,2.04-0.12c1.16-0.1,1.97-0.17,2.63-0.09c0.95,0.1,1.71,1.02,1.92,2.35c0.25,1.59-0.27,4.69-3.82,6.24l-4.01,1.77
		c-0.85,0.37-1.57,0.69-2.23,0.99c-1.09,0.58-3.24,1.91-4.59,3.86c-0.19,0.27-0.2,0.4-0.2,0.4c0.32,0.25,2.38,0.26,3.74,0.26
		c0.97,0,1.97,0.01,2.86,0.08c0.01,0,0.02,0,0.03,0c1.25,0,2.53-0.46,3.46-0.81c1.03-0.38,2.01-0.74,2.87-0.74l0.31,0.02
		c2.08,0.22,3.22,0.67,3.69,2.53c0.59,2.35-1.77,4.3-2.55,4.94c-0.36,0.51-1.24,1.05-1.89,1.32c-2.19,1.36-4.48,2.36-5.66,2.83
		c-7.67,4.12-17.42,10.19-21.45,14.69c-1.59,1.78-1.38,2.81-1.22,3.17c0.17,0.38,0.62,0.61,0.95,0.61l0.65-0.24
		c1.14-0.53,2.87-1.35,5.28-1.35c0.73,0,1.49,0.08,2.24,0.23c2.65,0.53,7.09-0.52,9.69-1.19c1.08-0.24,2.2-1.23,3.2-2.1
		c1.21-1.07,1.98-1.72,2.82-1.72h0.69l0.59,0.77c1.98,3.23,0.61,7.55-3.76,11.83c-2.14,2.88-6.82,5.64-10.94,8.07
		c-2.29,1.36-4.44,2.63-5.79,3.71c-4.09,3.31-5.97,7.77-7.18,17.02c-0.43,3.29,0,3.96,0.09,4.07c0.29-0.01,1.25-0.74,2.13-1.95
		c1.29-1.55,4.19-5.04,11.66-5.04c5.5,0,7.34-1.25,9.13-2.46c0.45-0.31,0.91-0.61,1.4-0.89c0.94-0.53,1.61-0.77,2.16-0.77
		c0.41,0,0.99,0.13,1.4,0.74c0.83,1.21-0.02,3.67-0.3,4.38c-2.22,4.93-5.56,6.44-9.44,8.19c-1.69,0.76-3.43,1.54-5.27,2.7
		c-0.4,0.29-0.84,0.73-1.8,1.69l-0.22,0.21c-1.45,1.43-1.41,2.02-1.41,2.03l0.43-0.03c0.71-0.12,1.62,0.02,2.66,0.21
		c1.01,0.18,2.01,0.36,3.01,0.36l0.3-0.01c2.28-0.07,4.19-0.54,6.78-1.66c0.89-0.39,1.63-0.9,2.29-1.35
		c1.44-0.99,2.87-1.67,4.18-0.83c1.18,0.74,1.5,2.31,0.96,4.63c-0.06,1.44-1.99,4.08-2.91,5.11c-1.82,2.05-11.03,7.96-13.98,9.31
		c-0.41,0.19-0.8,0.38-1.27,0.64c-0.06,0.04-0.19,0.13-0.35,0.22c-3.95,2.24-6.6,5.66-6.63,5.7c-1.18,1.69-1.95,3.52-1.82,4
		c0.08-0.12,0.53-0.18,1.53-0.69c2.65-1.34,6.57-0.84,9.73-0.17c2.2,0.47,4.63,0.79,5.64,0.29c0.26-0.13,0.55-0.26,0.89-0.26h0.57
		l0.52,0.54c0.76,0.92,0.54,2.92,0.33,4.03c0.01,1.19-0.22,2.69-0.51,3.28c-1.32,2.62-2.47,3.08-5.55,4.3
		c-0.82,0.32-1.78,0.7-2.93,1.2c-2.87,1.3-8.21,3.91-9.94,5.4c-2.13,1.83-3.24,4.36-3.72,5.7l-0.21,0.58
		c-0.14,0.38-0.33,0.87-0.33,1.07c0.06-0.03,0.31,0.06,1.02,0.06c1.01,0,2.57-0.16,5.21-0.52c2.45-0.33,7.21-1.94,9.45-3.44
		c1.83-1.23,5.09-0.82,6.54,0.82c0.68,0.77,0.99,1.73,0.88,2.78l-0.09,0.35c-2.3,5.45-8.19,8.49-13.01,9.09
		c-5.8,0.71-6.81,2.07-6.98,2.63c-0.25,0.83,0.78,1.73,0.79,1.74c1.3,0.87,2.24,1.79,2.9,2.49c0.42,0.44,1.77,2.03,1.61,3.96
		c-0.14,1.62-1.28,2.94-3.41,3.93l-0.14-0.29l0.13,0.3l-1.2,0.53c-2.43,1.15-8,4.2-9.77,8.67c-1.59,4.01-2.7,7.32-3.31,9.83
		l-0.11,0.65c-0.33,1.82-0.14,3.4,0.51,4.21c0.57,0.71,1.5,0.49,2.2-0.41c3.65-4.68,16.09-10.91,20.28-11.28
		c0.64-0.06,1.34-0.1,2.1-0.14c4.12-0.23,9.75-0.54,13.22-4.19c2.52-2.66,4.57-4.07,5.94-4.07c1.02,0,1.67,0.72,1.67,1.82v7.23
		c0.01,0.29,0.01,0.55,0,0.7l-0.03,24.75c-0.12,9.16-0.87,15.93-4.16,19.22c-0.91,0.92-1.98,1.88-3.11,2.9
		c-2.62,2.35-5.59,5.02-7.48,7.94c-0.34,0.53-0.69,1.09-1.05,1.66l-0.24,0.39C80.71,304.79,77.6,309.77,72.32,312.71z"/>
</g>
</svg>
